<?xml version="1.0" encoding="iso-8859-1"?>
<!DOCTYPE svg PUBLIC "-//W3C//DTD SVG 20000303 Stylable//EN" "http://www.w3.org/TR/2000/03/WD-SVG-20000303/DTD/svg-20000303-stylable.dtd">
<!-- Creator: CorelDRAW -->
<svg xml:space="preserve" x="-3.68131in" y="-1.1049in" width="7.38082in" height="2.78243in" style="shape-rendering:geometricPrecision; text-rendering:geometricPrecision; image-rendering:optimizeQuality"
     viewBox="-3681 0 7381 2782">
 <defs>
  <style type="text/css">
   <![CDATA[
    .str0 {stroke:#C6C7CA;stroke-width:3}
    .fil0 {fill:none}
    .fil3 {fill:#131516}
    .fil5 {fill:#353C3F}
    .fil1 {fill:#D92925}
    .fil4 {fill:#E3E5EC}
    .fil2 {fill:#FFFFFF}
   ]]>
  </style>
 </defs>
 <g id="Layer 1">
  <path id="18275752" class="fil0 str0" d="M-2292 1138l38 -66 115 -178 73 -84 84 -84 105 -84 105 -73 126 -53 125 -52 147 -31 168 -11 0 0"/>
  <path id="18277424" class="fil0 str0" d="M1897 129l849 0"/>
  <path id="18277336" class="fil0 str0" d="M1813 254l42 0 0 -83 10 -21 32 -21 0 0 0 0"/>
  <path id="18277248" class="fil0 str0" d="M1897 370l1614 0"/>
  <path id="18277160" class="fil0 str0" d="M1813 254l42 0 0 74 10 21 32 21 0 0 0 0"/>
  <path id="18276896" class="fil0 str0" d="M932 254l881 0"/>
  <path id="18276808" class="fil0 str0" d="M848 422l42 0 0 -126 11 -31 31 -11 0 0 0 0"/>
  <path id="18276720" class="fil0 str0" d="M2085 653l849 0"/>
  <path id="18276632" class="fil0 str0" d="M2001 779l42 0 0 -84 11 -32 31 -10 0 0 0 0"/>
  <path id="18276544" class="fil0 str0" d="M2085 883l1615 0"/>
  <path id="18276456" class="fil0 str0" d="M2001 779l42 0 0 62 11 32 31 10 0 0 0 0"/>
  <path id="18276192" class="fil0 str0" d="M932 779l1069 0"/>
  <path id="18276104" class="fil0 str0" d="M848 422l42 0 0 315 0 0 11 21 31 21 0 0 0 0 0 0"/>
  <path id="18275840" class="fil0 str0" d="M-1206 422l38 0m0 0l1887 0m0 0l129 0"/>
  <path id="18275664" class="fil0 str0" d="M1435 2026l849 0"/>
  <path id="18275576" class="fil0 str0" d="M1352 2141l41 0 0 -73 11 -32 31 -10 0 0 0 0"/>
  <path id="18275488" class="fil0 str0" d="M1435 2257l1615 0"/>
  <path id="18275400" class="fil0 str0" d="M1352 2141l41 0 0 74 11 31 31 11 0 0 0 0"/>
  <path id="18275136" class="fil0 str0" d="M471 2141l881 0"/>
  <path id="18275048" class="fil0 str0" d="M387 2319l42 0 0 -136 11 -21 31 -21 0 0 0 0"/>
  <path id="18274960" class="fil0 str0" d="M1624 2550l849 0"/>
  <path id="18274872" class="fil0 str0" d="M1540 2665l42 0 0 -73 11 -32 31 -10 0 0 0 0"/>
  <path id="18274784" class="fil0 str0" d="M1624 2781l1614 0"/>
  <path id="18274696" class="fil0 str0" d="M1540 2665l42 0 0 74 11 31 31 11 0 0 0 0"/>
  <path id="18274432" class="fil0 str0" d="M471 2665l1069 0"/>
  <path id="18274344" class="fil0 str0" d="M387 2319l42 0 0 304 11 32 31 10 0 0 0 0"/>
  <path id="18274080" class="fil0 str0" d="M-1206 2319l1593 0"/>
  <path id="18273992" class="fil0 str0" d="M-2282 1614l28 56 115 167 73 95 84 83 105 84 105 74 126 52 125 52 147 32 168 10 0 0"/>
  <path id="18273904" class="fil1" d="M-3596 1124l2390 0 0 0 31 0 32 21 21 32 10 31 0 0 0 0 0 315 0 0 -10 42 -21 31 -32 21 -31 0 0 0 -2390 0 0 0 -31 0 -32 -21 -21 -31 0 -42 0 0 0 -315 0 0 0 -31 21 -32 32 -21 31 0z"/>
  <path id="18273816" class="fil0 str0" d="M-3596 1124l2390 0 0 0 31 0 32 21 21 32 10 31 0 0 0 0 0 315 0 0 -10 42 -21 31 -32 21 -31 0 0 0 -2390 0 0 0 -31 0 -32 -21 -21 -31 0 -42 0 0 0 -315 0 0 0 -31 21 -32 32 -21 31 0"/>
  <path id="18273728" class="fil2" d="M-3402 1356l45 0c-1,-11 -5,-20 -11,-27 -6,-7 -14,-10 -24,-10 -8,0 -14,2 -19,6 -6,5 -9,10 -11,17l-29 -6c3,-13 10,-23 19,-31 10,-7 23,-11 39,-11 21,0 37,7 49,21 12,13 17,31 17,53 0,15 -2,28 -8,39 -5,11 -13,19 -22,25 -9,6 -21,9 -34,9 -33,0 -53,-15 -60,-45l29 -9c1,10 5,18 11,22 6,5 13,8 21,8 8,0 15,-3 21,-9 6,-6 10,-15 12,-28l-45 0 0 -24z"/>
  <path id="18273728" class="fil2" d="M-3301 1336l91 0 0 103 -27 0 0 -81 -37 0 0 46c0,12 -2,20 -4,25 -3,5 -6,8 -9,9 -4,2 -9,3 -16,3 -5,0 -10,-1 -18,-2l0 -20c1,0 3,0 5,0 3,0 5,0 7,0 3,0 6,-1 6,-3 1,-3 2,-10 2,-21l0 -59z"/>
  <path id="18273728" class="fil2" d="M-3125 1406l27 5c-3,10 -9,17 -16,22 -8,6 -17,8 -29,8 -18,0 -31,-6 -39,-17 -7,-10 -11,-22 -11,-36 0,-17 5,-30 14,-40 9,-10 20,-15 34,-15 15,0 27,5 36,16 9,10 13,25 13,46l-69 0c0,8 3,15 7,19 4,5 9,7 16,7 4,0 8,-1 10,-4 3,-2 6,-6 7,-11zm2 -28c-1,-8 -3,-14 -6,-18 -4,-4 -9,-6 -15,-6 -6,0 -11,2 -14,7 -4,4 -6,10 -6,17l41 0z"/>
  <path id="18273728" class="fil2" d="M-3075 1336l27 0 0 42c5,-1 8,-2 10,-4 2,-3 4,-8 7,-15 3,-10 7,-17 11,-20 4,-3 10,-4 16,-4 3,0 6,0 11,0l0 19c-7,0 -11,0 -13,2 -2,1 -5,5 -7,12 -3,10 -8,16 -14,18 9,2 16,10 22,22 0,1 1,2 1,2l16 29 -30 0 -13 -30c-3,-6 -6,-10 -8,-12 -2,-1 -5,-2 -9,-2l0 44 -27 0 0 -103z"/>
  <path id="18273728" class="fil2" d="M-2987 1336l94 0 0 22 -33 0 0 81 -27 0 0 -81 -34 0 0 -22z"/>
  <path id="18273728" class="fil2" d="M-2878 1336l26 0 0 15c3,-5 8,-10 13,-13 6,-3 12,-5 19,-5 12,0 22,5 31,14 8,10 12,23 12,40 0,17 -4,30 -12,40 -9,9 -19,14 -31,14 -6,0 -11,-1 -16,-3 -4,-2 -9,-6 -14,-12l0 52 -28 0 0 -142zm28 50c0,11 2,20 6,25 5,6 11,9 17,9 7,0 12,-3 16,-8 4,-5 6,-14 6,-25 0,-11 -2,-19 -6,-24 -4,-5 -10,-8 -16,-8 -7,0 -12,2 -17,8 -4,5 -6,12 -6,23z"/>
  <path id="18273728" class="fil2" d="M-2761 1386c0,-9 2,-18 6,-27 5,-8 11,-15 19,-19 8,-4 18,-7 28,-7 15,0 28,5 38,16 10,10 15,22 15,38 0,16 -5,29 -15,39 -10,10 -23,15 -38,15 -10,0 -19,-2 -27,-6 -9,-4 -15,-11 -20,-19 -4,-8 -6,-18 -6,-30zm28 1c0,11 2,18 7,24 5,5 11,8 18,8 7,0 13,-3 18,-8 5,-6 7,-14 7,-24 0,-10 -2,-18 -7,-23 -5,-6 -11,-8 -18,-8 -7,0 -13,2 -18,8 -5,5 -7,13 -7,23z"/>
  <path id="18273728" class="fil2" d="M-2635 1336l28 0 0 37 39 0 0 -37 27 0 0 103 -27 0 0 -43 -39 0 0 43 -28 0 0 -103z"/>
  <path id="18273728" class="fil2" d="M-2514 1336l27 0 0 37 39 0 0 -37 28 0 0 103 -28 0 0 -43 -39 0 0 43 -27 0 0 -103z"/>
  <path id="18273728" class="fil2" d="M-2393 1336l28 0 0 43 27 0c11,0 19,0 25,2 5,1 10,5 14,10 4,5 6,11 6,18 0,10 -3,17 -10,22 -7,5 -18,8 -31,8l-59 0 0 -103zm28 86l25 0c7,0 11,-1 14,-4 3,-2 5,-5 5,-10 0,-5 -2,-8 -6,-10 -4,-2 -11,-3 -21,-3l-17 0 0 27zm88 -86l27 0 0 103 -27 0 0 -103z"/>
  <path id="18273728" class="fil2" d="M-2163 1406l27 5c-3,10 -9,17 -16,22 -8,6 -17,8 -29,8 -18,0 -31,-6 -40,-17 -6,-10 -10,-22 -10,-36 0,-17 5,-30 14,-40 9,-10 20,-15 34,-15 15,0 27,5 36,16 9,10 13,25 13,46l-69 0c0,8 3,15 7,19 4,5 9,7 16,7 4,0 7,-1 10,-4 3,-2 6,-6 7,-11zm2 -28c-1,-8 -3,-14 -7,-18 -3,-4 -8,-6 -14,-6 -6,0 -11,2 -15,7 -3,4 -5,10 -5,17l41 0z"/>
  <path id="18273728" class="fil2" d="M-1971 1439l-79 0 0 27 -22 0 0 -49 11 0c5,-6 9,-14 12,-25 3,-11 5,-30 6,-56l83 0 0 81 11 0 0 49 -22 0 0 -27zm-16 -22l0 -59 -33 0c-1,29 -6,48 -14,59l47 0z"/>
  <path id="18273728" class="fil2" d="M-1870 1406l27 5c-4,10 -9,17 -17,22 -7,6 -17,8 -28,8 -18,0 -31,-6 -40,-17 -7,-10 -10,-22 -10,-36 0,-17 4,-30 13,-40 9,-10 20,-15 34,-15 15,0 28,5 36,16 9,10 14,25 13,46l-68 0c0,8 2,15 6,19 5,5 10,7 16,7 4,0 8,-1 11,-4 3,-2 5,-6 7,-11zm1 -28c0,-8 -2,-14 -6,-18 -4,-4 -9,-6 -14,-6 -6,0 -11,2 -15,7 -4,4 -6,10 -6,17l41 0z"/>
  <path id="18273728" class="fil2" d="M-1821 1336l28 0 0 37 39 0 0 -37 27 0 0 103 -27 0 0 -43 -39 0 0 43 -28 0 0 -103z"/>
  <path id="18273728" class="fil2" d="M-1699 1336l28 0 0 43 27 0c11,0 19,0 25,2 6,1 10,5 14,10 4,5 6,11 6,18 0,10 -3,17 -10,22 -7,5 -17,8 -31,8l-59 0 0 -103zm28 86l25 0c8,0 13,-2 15,-4 3,-3 4,-6 4,-10 0,-5 -2,-8 -6,-10 -4,-2 -11,-3 -20,-3l-18 0 0 27z"/>
  <path id="18273728" class="fil2" d="M-1578 1336l70 0 0 22 -43 0 0 81 -27 0 0 -103z"/>
  <path id="18273728" class="fil2" d="M-1495 1336l27 0 0 65 42 -65 27 0 0 103 -27 0 0 -66 -42 66 -27 0 0 -103z"/>
  <g>
   <path id="18277072" class="fil2" d="M997 143l650 0 0 0 31 11 11 21 0 0 0 0 0 147 0 0 -11 21 -31 10 0 0 -650 0 0 0 -21 -10 -10 -21 0 0 0 -147 0 0 10 -21 21 -11z"/>
   <path id="18276984" class="fil0 str0" d="M997 143l650 0 0 0 31 11 11 21 0 0 0 0 0 147 0 0 -11 21 -31 10 0 0 -650 0 0 0 -21 -10 -10 -21 0 0 0 -147 0 0 10 -21 21 -11"/>
   <path id="18273552" class="fil3" d="M1064 204l0 -12 12 0 0 12c12,1 22,5 29,12 8,6 11,15 11,25 0,10 -3,18 -10,25 -7,7 -17,11 -30,12l0 12 -12 0 0 -12c-12,-1 -21,-4 -29,-11 -8,-7 -12,-15 -12,-26 0,-11 4,-20 12,-26 8,-7 17,-10 29,-11zm12 11l0 51c8,0 15,-2 20,-7 4,-4 7,-10 7,-18 0,-8 -3,-14 -7,-18 -5,-5 -12,-7 -20,-8zm-12 0c-8,1 -15,3 -20,8 -5,4 -7,10 -7,18 0,8 2,14 7,18 5,5 12,7 20,7l0 -51z"/>
   <path id="18273552" class="fil3" d="M1131 220l12 0 0 53 33 -53 13 0 0 70 -12 0 0 -53 -33 53 -13 0 0 -70z"/>
   <path id="18273552" class="fil3" d="M1253 281c-5,4 -9,7 -13,8 -4,2 -8,3 -13,3 -8,0 -14,-2 -18,-6 -4,-4 -6,-9 -6,-14 0,-4 0,-7 2,-10 2,-3 4,-5 6,-7 3,-2 6,-3 9,-4 2,0 6,-1 10,-2 10,-1 17,-2 22,-4 0,-1 0,-2 0,-3 0,-5 -1,-8 -3,-10 -4,-3 -8,-4 -14,-4 -6,0 -10,1 -13,3 -2,2 -4,5 -6,10l-11 -1c1,-5 3,-9 5,-12 2,-4 6,-6 11,-8 4,-1 10,-2 16,-2 6,0 11,1 14,2 4,1 7,3 9,5 1,3 3,5 3,9 1,2 1,5 1,11l0 16c0,11 0,18 1,21 0,3 1,5 3,8l-13 0c-1,-2 -2,-5 -2,-9zm-1 -26c-5,1 -11,3 -20,4 -5,1 -8,2 -10,3 -2,1 -4,2 -5,4 -1,1 -2,3 -2,5 0,3 2,6 4,8 2,2 6,3 11,3 4,0 8,-1 12,-3 4,-2 6,-4 8,-8 1,-3 2,-7 2,-12l0 -4z"/>
   <path id="18273552" class="fil3" d="M1273 220l58 0 0 9 -23 0 0 61 -12 0 0 -61 -23 0 0 -9z"/>
   <path id="18273552" class="fil3" d="M1342 220l12 0 0 29 33 0 0 -29 12 0 0 70 -12 0 0 -31 -33 0 0 31 -12 0 0 -70z"/>
   <path id="18273552" class="fil3" d="M1484 220l12 0 0 70 -12 0 0 -70zm-67 0l12 0 0 27 16 0c9,0 17,2 22,6 6,4 8,9 8,16 0,6 -2,11 -6,15 -5,4 -12,6 -22,6l-30 0 0 -70zm12 60l13 0c8,0 13,-1 16,-2 3,-2 5,-5 5,-9 0,-3 -1,-6 -3,-8 -3,-3 -8,-4 -16,-4l-15 0 0 23z"/>
   <path id="18273552" class="fil3" d="M1563 267l13 2c-2,7 -6,13 -11,17 -5,4 -12,6 -20,6 -11,0 -19,-3 -25,-10 -6,-6 -9,-15 -9,-27 0,-11 3,-21 9,-27 6,-7 14,-10 24,-10 10,0 17,3 23,10 6,6 9,15 9,27 0,0 0,1 0,3l-52 0c0,8 2,14 6,18 4,4 9,6 15,6 4,0 8,-1 11,-4 3,-2 6,-6 7,-11zm-39 -19l40 0c-1,-6 -2,-10 -5,-13 -4,-5 -9,-7 -15,-7 -5,0 -10,2 -14,5 -3,4 -5,9 -6,15z"/>
  </g>
  <path id="18273464" class="fil3" d="M1928 97l37 -97 14 0 40 97 -15 0 -11 -29 -41 0 -10 29 -14 0zm28 -40l33 0 -10 -27c-3,-8 -6,-15 -7,-20 -1,6 -3,12 -5,19l-11 28z"/>
  <path id="18273464" class="fil3" d="M2028 27l12 0 0 29 33 0 0 -29 12 0 0 70 -12 0 0 -31 -33 0 0 31 -12 0 0 -70z"/>
  <path id="18273464" class="fil3" d="M2099 62c0,-13 3,-23 11,-29 6,-5 13,-8 22,-8 10,0 18,3 24,10 6,6 9,15 9,26 0,9 -1,16 -4,21 -3,6 -7,10 -12,12 -5,3 -11,5 -17,5 -10,0 -18,-3 -24,-10 -6,-6 -9,-15 -9,-27zm12 0c0,9 2,16 6,20 4,5 9,7 15,7 6,0 11,-2 15,-7 4,-4 6,-11 6,-21 0,-8 -2,-15 -6,-19 -4,-5 -9,-7 -15,-7 -6,0 -11,2 -15,7 -4,4 -6,11 -6,20z"/>
  <path id="18273464" class="fil3" d="M2179 27l12 0 0 29 33 0 0 -29 12 0 0 70 -12 0 0 -31 -33 0 0 31 -12 0 0 -70z"/>
  <path id="18273464" class="fil3" d="M2254 27l12 0 0 53 33 -53 13 0 0 70 -12 0 0 -53 -33 53 -13 0 0 -70z"/>
  <path id="18273464" class="fil3" d="M2331 27l18 0 19 56 20 -56 18 0 0 70 -12 0 0 -57 -21 57 -11 0 -20 -59 0 59 -11 0 0 -70z"/>
  <path id="18273464" class="fil3" d="M2424 27l12 0 0 29 33 0 0 -29 12 0 0 70 -12 0 0 -31 -33 0 0 31 -12 0 0 -70z"/>
  <path id="18273464" class="fil3" d="M2567 27l11 0 0 70 -11 0 0 -70zm-67 0l11 0 0 27 16 0c10,0 17,2 23,6 5,4 8,9 8,16 0,6 -3,11 -7,15 -5,4 -12,6 -22,6l-29 0 0 -70zm11 60l13 0c8,0 13,-1 16,-2 4,-2 5,-5 5,-9 0,-3 -1,-6 -3,-8 -3,-3 -8,-4 -16,-4l-15 0 0 23z"/>
  <path id="18273464" class="fil3" d="M2646 74l12 2c-2,7 -6,13 -11,17 -5,4 -12,6 -20,6 -10,0 -19,-3 -25,-10 -6,-6 -9,-15 -9,-27 0,-11 3,-21 9,-27 7,-7 14,-10 24,-10 10,0 17,3 23,10 6,6 9,15 9,27 0,0 0,2 0,3l-52 0c0,8 2,14 6,18 4,4 9,6 15,6 4,0 8,-1 11,-4 3,-2 6,-5 8,-11zm-40 -19l40 0c-1,-6 -2,-10 -5,-13 -4,-5 -9,-7 -15,-7 -5,0 -10,2 -14,5 -3,4 -5,9 -6,15z"/>
  <path id="18273376" class="fil3" d="M1939 230l76 0 0 98 -13 0 0 -86 -50 0 0 86 -13 0 0 -98z"/>
  <path id="18273376" class="fil3" d="M2083 305l13 2c-2,7 -6,12 -11,16 -5,4 -12,6 -20,6 -11,0 -19,-3 -25,-9 -6,-6 -9,-15 -9,-27 0,-12 3,-21 9,-28 6,-6 14,-9 24,-9 9,0 17,3 23,9 6,7 9,16 9,27 0,1 0,2 0,4l-53 0c1,7 3,13 7,17 4,5 9,7 15,7 4,0 8,-2 11,-4 3,-2 6,-6 7,-11zm-39 -19l39 0c0,-6 -2,-11 -4,-14 -4,-4 -9,-7 -15,-7 -5,0 -10,2 -14,6 -3,4 -6,9 -6,15z"/>
  <path id="18273376" class="fil3" d="M2111 355l0 -98 11 0 0 9c2,-3 5,-6 8,-8 4,-2 8,-2 12,-2 6,0 12,1 16,4 5,3 8,8 11,13 2,6 3,12 3,19 0,7 -1,14 -4,19 -2,6 -6,11 -11,14 -5,3 -10,4 -16,4 -4,0 -7,0 -10,-2 -4,-2 -6,-4 -8,-6l0 34 -12 0zm11 -62c0,9 1,16 5,20 4,4 8,7 14,7 5,0 9,-3 13,-7 4,-5 6,-12 6,-21 0,-9 -2,-16 -6,-20 -3,-5 -8,-7 -13,-7 -5,0 -10,2 -13,7 -4,5 -6,12 -6,21z"/>
  <path id="18273376" class="fil3" d="M2233 302l11 1c-1,9 -4,15 -9,20 -6,4 -12,6 -20,6 -10,0 -17,-3 -23,-9 -6,-6 -9,-15 -9,-27 0,-8 1,-15 4,-20 2,-6 6,-10 11,-13 5,-3 11,-4 17,-4 8,0 14,2 19,5 5,4 8,10 9,17l-11 2c-1,-5 -3,-9 -6,-11 -3,-2 -6,-4 -10,-4 -6,0 -11,3 -15,7 -4,4 -6,11 -6,20 0,10 2,17 6,21 3,4 8,7 14,7 5,0 9,-2 12,-5 3,-3 5,-7 6,-13z"/>
  <path id="18273376" class="fil3" d="M2252 292c0,-13 3,-22 11,-29 6,-5 13,-7 22,-7 10,0 18,3 24,9 6,6 9,15 9,26 0,10 -1,17 -4,22 -3,5 -7,9 -12,12 -5,3 -11,4 -17,4 -10,0 -18,-3 -24,-9 -6,-6 -9,-16 -9,-28zm12 0c0,10 2,16 6,21 4,4 9,7 15,7 6,0 11,-3 15,-7 4,-5 6,-12 6,-21 0,-9 -2,-15 -6,-20 -4,-4 -9,-7 -15,-7 -6,0 -11,3 -15,7 -4,5 -6,11 -6,20z"/>
  <path id="18273376" class="fil3" d="M2332 257l12 0 0 30 33 0 0 -30 12 0 0 71 -12 0 0 -32 -33 0 0 32 -12 0 0 -71z"/>
  <path id="18273376" class="fil3" d="M2453 319c-4,4 -8,7 -12,8 -5,2 -9,2 -14,2 -7,0 -13,-1 -18,-5 -4,-4 -6,-9 -6,-15 0,-3 1,-6 3,-9 1,-3 3,-5 6,-7 2,-2 5,-3 8,-4 3,-1 6,-1 11,-2 10,-1 17,-2 21,-4 0,-2 0,-3 0,-3 0,-5 -1,-8 -3,-10 -3,-3 -8,-5 -14,-5 -5,0 -9,1 -12,3 -3,2 -5,6 -6,11l-12 -2c1,-5 3,-9 5,-12 3,-3 6,-5 11,-7 5,-2 10,-2 16,-2 6,0 11,0 15,2 4,1 6,3 8,5 2,2 3,5 4,8 0,2 0,6 0,11l0 16c0,11 1,18 1,21 1,3 2,6 3,9l-12 0c-1,-3 -2,-6 -3,-9zm-1 -27c-4,2 -11,4 -19,5 -5,1 -9,1 -11,2 -2,1 -3,2 -4,4 -1,2 -2,4 -2,6 0,3 1,6 4,8 2,2 6,3 10,3 5,0 9,-1 12,-3 4,-2 7,-5 8,-8 2,-3 2,-7 2,-12l0 -5z"/>
  <path id="18273376" class="fil3" d="M2489 257l56 0 0 71 -12 0 0 -61 -32 0 0 35c0,8 0,14 -1,17 0,2 -2,4 -4,6 -3,2 -6,3 -11,3 -3,0 -6,0 -9,0l0 -10 5 0c2,0 4,0 5,-1 1,-1 2,-1 2,-2 1,-2 1,-5 1,-11l0 -47z"/>
  <path id="18273376" class="fil3" d="M2563 257l12 0 0 54 33 -54 13 0 0 71 -12 0 0 -54 -34 54 -12 0 0 -71z"/>
  <path id="18273376" class="fil3" d="M2654 296l0 -9c5,-1 9,-1 11,-1 1,0 3,-2 5,-3 2,-2 2,-4 2,-7 0,-3 -1,-6 -3,-8 -2,-2 -5,-3 -8,-3 -7,0 -12,4 -14,12l-12 -2c4,-13 12,-19 26,-19 7,0 13,2 18,6 4,4 6,9 6,15 0,5 -3,10 -8,13 3,2 6,5 8,8 1,3 2,6 2,10 0,6 -2,12 -7,16 -4,3 -11,5 -19,5 -16,0 -25,-7 -28,-21l11 -2c1,4 3,8 6,10 4,3 7,4 11,4 4,0 8,-1 10,-4 3,-2 4,-5 4,-8 0,-3 -1,-6 -2,-8 -2,-2 -4,-3 -6,-3 -2,-1 -5,-1 -10,-1 0,0 -1,0 -3,0z"/>
  <path id="18273376" class="fil3" d="M2701 257l12 0 0 54 33 -54 13 0 0 71 -12 0 0 -54 -33 54 -13 0 0 -71z"/>
  <path id="18273376" class="fil3" d="M2777 355l0 -98 11 0 0 9c3,-3 6,-6 9,-8 3,-2 7,-2 12,-2 6,0 11,1 16,4 4,3 8,8 10,13 2,6 4,12 4,19 0,7 -2,14 -4,19 -3,6 -7,11 -12,14 -5,3 -10,4 -15,4 -4,0 -8,0 -11,-2 -3,-2 -6,-4 -8,-6l0 34 -12 0zm11 -62c0,9 2,16 6,20 3,4 8,7 13,7 5,0 10,-3 14,-7 3,-5 5,-12 5,-21 0,-9 -1,-16 -5,-20 -4,-5 -8,-7 -13,-7 -6,0 -10,2 -14,7 -4,5 -6,12 -6,21z"/>
  <path id="18273376" class="fil3" d="M2849 292c0,-13 3,-22 11,-29 6,-5 13,-7 22,-7 9,0 17,3 24,9 6,6 9,15 9,26 0,10 -2,17 -4,22 -3,5 -7,9 -12,12 -5,3 -11,4 -17,4 -10,0 -18,-3 -24,-9 -6,-6 -9,-16 -9,-28zm12 0c0,10 2,16 6,21 4,4 9,7 15,7 6,0 11,-3 15,-7 3,-5 5,-12 5,-21 0,-9 -2,-15 -5,-20 -4,-4 -9,-7 -15,-7 -6,0 -11,3 -15,7 -4,5 -6,11 -6,20z"/>
  <path id="18273376" class="fil3" d="M2929 257l27 0c7,0 12,1 16,2 3,1 6,3 8,6 3,3 4,7 4,11 0,3 -1,6 -2,9 -2,2 -4,4 -7,6 4,1 6,3 9,6 2,3 3,7 3,11 -1,7 -3,12 -7,15 -5,3 -11,5 -19,5l-32 0 0 -71zm12 30l13 0c5,0 8,0 10,-1 2,0 4,-2 5,-3 2,-2 3,-4 3,-6 0,-4 -2,-6 -4,-8 -3,-1 -8,-2 -14,-2l-13 0 0 20zm0 31l16 0c6,0 11,-1 14,-2 2,-2 3,-5 4,-9 0,-2 -1,-4 -3,-6 -1,-2 -3,-3 -5,-3 -3,-1 -6,-1 -12,-1l-14 0 0 21z"/>
  <path id="18273376" class="fil3" d="M3046 319c-5,4 -9,7 -13,8 -4,2 -9,2 -13,2 -8,0 -14,-1 -18,-5 -4,-4 -6,-9 -6,-15 0,-3 0,-6 2,-9 2,-3 4,-5 6,-7 3,-2 6,-3 9,-4 2,-1 6,-1 10,-2 10,-1 17,-2 22,-4 0,-2 0,-3 0,-3 0,-5 -1,-8 -4,-10 -3,-3 -7,-5 -13,-5 -6,0 -10,1 -13,3 -2,2 -4,6 -6,11l-11 -2c1,-5 3,-9 5,-12 2,-3 6,-5 11,-7 4,-2 9,-2 16,-2 6,0 11,0 14,2 4,1 7,3 9,5 1,2 3,5 3,8 1,2 1,6 1,11l0 16c0,11 0,18 1,21 0,3 1,6 3,9l-13 0c-1,-3 -2,-6 -2,-9zm-1 -27c-5,2 -11,4 -20,5 -5,1 -8,1 -10,2 -2,1 -4,2 -5,4 -1,2 -2,4 -2,6 0,3 2,6 4,8 2,2 6,3 11,3 4,0 8,-1 12,-3 4,-2 6,-5 8,-8 1,-3 2,-7 2,-12l0 -5z"/>
  <path id="18273376" class="fil3" d="M3076 257l12 0 0 30 33 0 0 -30 12 0 0 71 -12 0 0 -32 -33 0 0 32 -12 0 0 -71z"/>
  <path id="18273376" class="fil3" d="M3151 257l12 0 0 30 33 0 0 -30 12 0 0 71 -12 0 0 -32 -33 0 0 32 -12 0 0 -71z"/>
  <path id="18273376" class="fil3" d="M3293 257l12 0 0 71 -12 0 0 -71zm-67 0l12 0 0 28 15 0c10,0 18,2 23,6 6,3 8,9 8,15 0,6 -2,11 -6,16 -5,4 -12,6 -22,6l-30 0 0 -71zm12 61l13 0c7,0 13,-1 16,-3 3,-2 5,-5 5,-9 0,-3 -1,-5 -4,-8 -2,-2 -7,-3 -16,-3l-14 0 0 23z"/>
  <path id="18273376" class="fil3" d="M3372 305l13 2c-2,7 -6,12 -11,16 -5,4 -12,6 -20,6 -11,0 -19,-3 -25,-9 -6,-6 -9,-15 -9,-27 0,-12 3,-21 9,-28 6,-6 14,-9 24,-9 9,0 17,3 23,9 6,7 9,16 9,27 0,1 0,2 0,4l-53 0c1,7 3,13 7,17 4,5 9,7 15,7 4,0 8,-2 11,-4 3,-2 5,-6 7,-11zm-39 -19l39 0c0,-6 -2,-11 -4,-14 -4,-4 -9,-7 -15,-7 -5,0 -10,2 -14,6 -4,4 -6,9 -6,15z"/>
  <g>
   <path id="18276368" class="fil2" d="M997 669l839 0 0 0 31 11 11 31 0 0 0 0 0 137 0 0 -11 31 -31 11 0 0 -839 0 0 0 -21 -11 -10 -31 0 0 0 -137 0 0 10 -31 21 -11z"/>
   <path id="18276280" class="fil0 str0" d="M997 669l839 0 0 0 31 11 11 31 0 0 0 0 0 137 0 0 -11 31 -31 11 0 0 -839 0 0 0 -21 -11 -10 -31 0 0 0 -137 0 0 10 -31 21 -11"/>
   <path id="18273288" class="fil3" d="M1029 827l0 -98 13 0 0 40 51 0 0 -40 12 0 0 98 -12 0 0 -46 -51 0 0 46 -13 0z"/>
   <path id="18273288" class="fil3" d="M1174 804l12 1c-2,8 -5,13 -11,17 -5,4 -12,6 -20,6 -10,0 -18,-3 -24,-9 -7,-7 -10,-16 -10,-27 0,-12 3,-21 10,-28 6,-6 14,-10 23,-10 10,0 18,4 24,10 6,6 9,16 9,27 0,1 0,2 -1,3l-52 0c0,8 2,14 6,18 4,4 9,6 15,6 5,0 8,-1 11,-3 4,-2 6,-6 8,-11zm-40 -19l40 0c-1,-6 -2,-11 -5,-14 -3,-4 -8,-7 -14,-7 -6,0 -11,2 -14,6 -4,3 -6,8 -7,15z"/>
   <path id="18273288" class="fil3" d="M1242 729l12 0 0 34c3,-3 6,-5 8,-6 3,-2 7,-3 10,-3 8,0 15,4 20,11 5,7 7,16 7,26 0,11 -2,20 -8,27 -5,7 -11,10 -19,10 -3,0 -5,0 -8,-1 -3,-1 -6,-3 -10,-6l0 33 -12 0 0 -33c-2,2 -5,4 -8,5 -3,2 -6,2 -9,2 -7,0 -14,-3 -19,-9 -6,-7 -9,-16 -9,-28 0,-11 3,-19 8,-26 5,-7 11,-11 20,-11 4,0 7,1 10,3 2,1 5,3 7,6l0 -34zm12 63c0,10 2,17 5,21 3,4 6,6 11,6 4,0 9,-3 12,-7 4,-5 5,-12 5,-21 0,-9 -1,-16 -5,-20 -3,-5 -7,-7 -12,-7 -5,0 -9,2 -12,7 -2,5 -4,11 -4,21zm-45 -2c0,10 2,17 5,22 4,4 8,6 13,6 5,0 9,-2 12,-6 2,-5 3,-11 3,-20 0,-9 -1,-16 -4,-21 -2,-4 -6,-7 -12,-7 -5,0 -9,3 -12,7 -3,5 -5,11 -5,19z"/>
   <path id="18273288" class="fil3" d="M1313 756l12 0 0 54 34 -54 12 0 0 71 -12 0 0 -54 -33 54 -13 0 0 -71z"/>
   <path id="18273288" class="fil3" d="M1436 818c-5,4 -9,6 -13,8 -4,1 -9,2 -13,2 -8,0 -14,-2 -18,-5 -5,-4 -7,-9 -7,-15 0,-3 1,-7 3,-9 1,-3 3,-6 6,-7 3,-2 5,-3 9,-4 2,-1 5,-1 10,-2 10,-1 17,-3 22,-4 0,-2 0,-3 0,-3 0,-5 -2,-9 -4,-11 -3,-2 -7,-4 -13,-4 -6,0 -10,1 -13,3 -3,2 -5,6 -6,11l-12 -2c2,-5 3,-9 6,-12 2,-3 6,-5 10,-7 5,-2 10,-3 16,-3 6,0 11,1 15,3 4,1 7,3 8,5 2,2 3,5 4,8 0,2 1,6 1,11l0 16c0,11 0,18 0,21 1,3 2,6 3,9l-12 0c-1,-3 -2,-6 -2,-9zm-1 -27c-5,2 -11,3 -20,5 -5,0 -8,1 -10,2 -2,1 -4,2 -5,4 -1,2 -2,4 -2,6 0,3 1,6 4,8 2,2 6,3 10,3 5,0 9,-1 13,-3 3,-2 6,-5 8,-8 1,-3 2,-7 2,-12l0 -5z"/>
   <path id="18273288" class="fil3" d="M1456 756l57 0 0 10 -23 0 0 61 -11 0 0 -61 -23 0 0 -10z"/>
   <path id="18273288" class="fil3" d="M1525 756l12 0 0 29 33 0 0 -29 12 0 0 71 -12 0 0 -32 -33 0 0 32 -12 0 0 -71z"/>
   <path id="18273288" class="fil3" d="M1667 756l12 0 0 71 -12 0 0 -71zm-67 0l12 0 0 28 15 0c10,0 18,2 23,5 5,4 8,10 8,16 0,6 -2,11 -7,15 -4,5 -11,7 -21,7l-30 0 0 -71zm12 61l13 0c7,0 13,-1 16,-3 3,-2 5,-5 5,-9 0,-3 -1,-5 -4,-8 -2,-2 -7,-3 -16,-3l-14 0 0 23z"/>
   <path id="18273288" class="fil3" d="M1746 804l13 1c-2,8 -6,13 -11,17 -6,4 -12,6 -20,6 -11,0 -19,-3 -25,-9 -6,-7 -9,-16 -9,-27 0,-12 3,-21 9,-28 6,-6 14,-10 24,-10 9,0 17,4 23,10 6,6 9,16 9,27 0,1 0,2 0,3l-53 0c1,8 3,14 7,18 4,4 9,6 15,6 4,0 8,-1 11,-3 3,-2 5,-6 7,-11zm-39 -19l39 0c0,-6 -2,-11 -4,-14 -4,-4 -9,-7 -15,-7 -6,0 -10,2 -14,6 -4,3 -6,8 -6,15z"/>
  </g>
  <path id="18273200" class="fil3" d="M2117 611l37 -98 14 0 40 98 -15 0 -11 -30 -41 0 -11 30 -13 0zm28 -40l33 0 -10 -27c-4,-8 -6,-15 -7,-20 -2,6 -3,12 -6,18l-10 29z"/>
  <path id="18273200" class="fil3" d="M2217 540l12 0 0 30 33 0 0 -30 12 0 0 71 -12 0 0 -32 -33 0 0 32 -12 0 0 -71z"/>
  <path id="18273200" class="fil3" d="M2287 575c0,-13 4,-22 11,-29 6,-5 14,-7 23,-7 9,0 17,3 23,9 7,6 10,15 10,26 0,10 -2,17 -5,22 -2,5 -6,9 -11,12 -6,3 -11,4 -17,4 -10,0 -18,-3 -24,-9 -7,-6 -10,-16 -10,-28zm13 0c0,10 2,16 6,21 4,4 9,7 15,7 5,0 10,-3 14,-7 4,-5 6,-12 6,-21 0,-9 -2,-15 -6,-20 -4,-4 -9,-7 -14,-7 -6,0 -11,3 -15,7 -4,5 -6,11 -6,20z"/>
  <path id="18273200" class="fil3" d="M2368 540l12 0 0 30 33 0 0 -30 12 0 0 71 -12 0 0 -32 -33 0 0 32 -12 0 0 -71z"/>
  <path id="18273200" class="fil3" d="M2443 540l12 0 0 54 33 -54 13 0 0 71 -12 0 0 -54 -33 54 -13 0 0 -71z"/>
  <path id="18273200" class="fil3" d="M2519 540l19 0 19 57 20 -57 17 0 0 71 -12 0 0 -57 -20 57 -11 0 -20 -60 0 60 -12 0 0 -71z"/>
  <path id="18273200" class="fil3" d="M2613 540l12 0 0 30 33 0 0 -30 12 0 0 71 -12 0 0 -32 -33 0 0 32 -12 0 0 -71z"/>
  <path id="18273200" class="fil3" d="M2755 540l12 0 0 71 -12 0 0 -71zm-67 0l12 0 0 28 15 0c10,0 18,2 23,6 6,3 8,9 8,15 0,6 -2,11 -6,16 -5,4 -12,6 -22,6l-30 0 0 -71zm12 61l13 0c7,0 13,-1 16,-3 3,-2 5,-5 5,-9 0,-3 -1,-5 -4,-8 -2,-2 -7,-3 -16,-3l-14 0 0 23z"/>
  <path id="18273200" class="fil3" d="M2834 588l13 2c-2,7 -6,12 -11,16 -6,4 -12,6 -20,6 -11,0 -19,-3 -25,-9 -6,-6 -9,-15 -9,-27 0,-12 3,-21 9,-28 6,-6 14,-9 24,-9 9,0 17,3 23,9 6,7 9,16 9,27 0,1 0,2 0,4l-53 0c1,7 3,13 7,17 4,5 9,7 15,7 4,0 8,-2 11,-4 3,-2 5,-6 7,-11zm-39 -19l39 0c0,-6 -2,-11 -4,-14 -4,-4 -9,-7 -15,-7 -5,0 -10,2 -14,6 -4,4 -6,9 -6,15z"/>
  <path id="18273112" class="fil3" d="M2127 744l77 0 0 97 -13 0 0 -86 -51 0 0 86 -13 0 0 -97z"/>
  <path id="18273112" class="fil3" d="M2272 819l12 1c-2,7 -5,13 -10,17 -6,4 -12,6 -21,6 -10,0 -18,-3 -24,-10 -6,-6 -9,-15 -9,-26 0,-12 3,-21 9,-28 6,-7 14,-10 24,-10 9,0 17,3 23,10 6,6 9,15 9,27 0,1 0,2 0,3l-53 0c0,8 3,14 7,18 4,4 9,6 14,6 5,0 9,-1 12,-3 3,-3 5,-6 7,-11zm-39 -20l39 0c0,-6 -2,-10 -4,-13 -4,-5 -9,-7 -15,-7 -6,0 -10,2 -14,6 -4,3 -6,8 -6,14z"/>
  <path id="18273112" class="fil3" d="M2299 869l0 -98 11 0 0 9c3,-4 6,-6 9,-8 3,-2 7,-3 12,-3 6,0 11,2 16,5 4,3 8,7 10,13 3,6 4,12 4,19 0,7 -1,13 -4,19 -3,6 -6,10 -11,13 -5,3 -11,5 -16,5 -4,0 -8,-1 -11,-2 -3,-2 -6,-4 -8,-7l0 35 -12 0zm11 -62c0,9 2,15 6,20 3,4 8,6 13,6 6,0 10,-2 14,-7 4,-4 6,-11 6,-20 0,-10 -2,-16 -6,-21 -4,-4 -8,-6 -13,-6 -5,0 -10,2 -14,7 -4,4 -6,11 -6,21z"/>
  <path id="18273112" class="fil3" d="M2421 816l12 1c-1,8 -4,15 -10,19 -5,5 -12,7 -19,7 -10,0 -18,-3 -24,-9 -5,-7 -8,-16 -8,-28 0,-7 1,-14 3,-20 3,-5 7,-10 12,-13 5,-2 11,-4 17,-4 7,0 14,2 19,6 4,4 8,9 9,17l-12 1c-1,-4 -3,-8 -6,-10 -2,-3 -6,-4 -10,-4 -6,0 -11,2 -14,7 -4,4 -6,11 -6,20 0,10 2,16 5,21 4,4 9,6 15,6 4,0 8,-1 11,-4 4,-3 6,-7 6,-13z"/>
  <path id="18273112" class="fil3" d="M2440 806c0,-13 4,-23 11,-29 6,-5 14,-8 23,-8 9,0 17,3 23,10 7,6 10,15 10,26 0,9 -2,16 -4,22 -3,5 -7,9 -12,12 -6,3 -11,4 -17,4 -10,0 -18,-3 -24,-9 -7,-7 -10,-16 -10,-28zm13 0c0,9 2,16 6,20 4,5 9,7 15,7 6,0 10,-2 14,-7 4,-4 6,-11 6,-20 0,-9 -2,-16 -6,-20 -4,-5 -9,-7 -14,-7 -6,0 -11,2 -15,7 -4,4 -6,11 -6,20z"/>
  <path id="18273112" class="fil3" d="M2521 771l12 0 0 29 33 0 0 -29 12 0 0 70 -12 0 0 -31 -33 0 0 31 -12 0 0 -70z"/>
  <path id="18273112" class="fil3" d="M2642 833c-4,3 -9,6 -13,8 -4,1 -8,2 -13,2 -8,0 -14,-2 -18,-6 -4,-3 -6,-8 -6,-14 0,-4 1,-7 2,-10 2,-3 4,-5 6,-7 3,-1 6,-3 9,-3 2,-1 6,-2 11,-2 9,-1 16,-3 21,-4 0,-2 0,-3 0,-4 0,-4 -1,-8 -3,-10 -3,-3 -8,-4 -14,-4 -6,0 -10,1 -12,3 -3,2 -5,6 -6,11l-12 -2c1,-5 3,-9 5,-12 3,-3 6,-6 11,-7 4,-2 10,-3 16,-3 6,0 11,1 14,2 4,2 7,4 9,6 2,2 3,5 4,8 0,2 0,6 0,11l0 16c0,11 0,18 1,21 0,3 1,6 3,8l-13 0c-1,-2 -2,-5 -2,-8zm-1 -27c-4,2 -11,3 -20,5 -4,0 -8,1 -10,2 -2,1 -4,2 -5,4 -1,1 -1,3 -1,5 0,4 1,6 3,8 3,3 6,4 11,4 4,0 9,-1 12,-3 4,-2 6,-5 8,-9 1,-2 2,-6 2,-12l0 -4z"/>
  <path id="18273112" class="fil3" d="M2678 771l55 0 0 70 -12 0 0 -60 -31 0 0 35c0,8 -1,14 -1,16 -1,3 -2,5 -5,7 -2,2 -6,3 -10,3 -3,0 -6,0 -10,-1l0 -10 6 0c2,0 4,0 5,0 1,-1 2,-2 2,-3 0,-1 1,-5 1,-11l0 -46z"/>
  <path id="18273112" class="fil3" d="M2751 771l12 0 0 54 33 -54 13 0 0 70 -12 0 0 -53 -33 53 -13 0 0 -70z"/>
  <path id="18273112" class="fil3" d="M2843 810l0 -10c5,0 8,0 10,0 2,-1 4,-2 6,-4 1,-1 2,-4 2,-6 0,-4 -1,-6 -3,-8 -2,-2 -5,-3 -9,-3 -6,0 -11,4 -14,12l-11 -2c3,-13 12,-20 26,-20 7,0 13,2 17,6 5,4 7,9 7,15 0,6 -3,10 -9,14 4,2 7,4 8,7 2,3 3,7 3,11 0,6 -2,11 -7,15 -5,4 -11,6 -19,6 -16,0 -26,-7 -28,-21l11 -3c1,5 3,8 6,11 3,2 7,3 11,3 4,0 7,-1 10,-3 3,-2 4,-5 4,-9 0,-3 -1,-5 -3,-7 -1,-2 -3,-3 -5,-4 -2,0 -5,-1 -10,-1 -1,0 -2,0 -3,1z"/>
  <path id="18273112" class="fil3" d="M2890 771l12 0 0 54 33 -54 13 0 0 70 -12 0 0 -53 -33 53 -13 0 0 -70z"/>
  <path id="18273112" class="fil3" d="M2966 869l0 -98 11 0 0 9c2,-4 5,-6 9,-8 3,-2 7,-3 11,-3 6,0 12,2 16,5 5,3 8,7 11,13 2,6 3,12 3,19 0,7 -1,13 -4,19 -2,6 -6,10 -11,13 -5,3 -10,5 -16,5 -4,0 -7,-1 -10,-2 -3,-2 -6,-4 -8,-7l0 35 -12 0zm11 -62c0,9 2,15 5,20 4,4 8,6 14,6 5,0 10,-2 13,-7 4,-4 6,-11 6,-20 0,-10 -2,-16 -6,-21 -3,-4 -8,-6 -13,-6 -5,0 -9,2 -13,7 -4,4 -6,11 -6,21z"/>
  <path id="18273112" class="fil3" d="M3037 806c0,-13 4,-23 11,-29 6,-5 14,-8 22,-8 10,0 18,3 24,10 6,6 9,15 9,26 0,9 -1,16 -4,22 -2,5 -6,9 -12,12 -5,3 -10,4 -17,4 -9,0 -17,-3 -24,-9 -6,-7 -9,-16 -9,-28zm13 0c0,9 2,16 5,20 4,5 9,7 15,7 6,0 11,-2 15,-7 4,-4 6,-11 6,-20 0,-9 -2,-16 -6,-20 -4,-5 -9,-7 -15,-7 -6,0 -11,2 -15,7 -3,4 -5,11 -5,20z"/>
  <path id="18273112" class="fil3" d="M3118 771l27 0c7,0 12,0 15,1 4,2 6,4 9,7 2,3 3,6 3,11 0,3 0,6 -2,8 -1,3 -3,5 -6,7 3,1 6,3 8,6 2,3 4,6 4,11 -1,6 -3,11 -8,15 -4,3 -10,4 -19,4l-31 0 0 -70zm12 30l12 0c5,0 9,-1 11,-1 2,-1 3,-2 5,-4 1,-1 2,-3 2,-5 0,-4 -1,-7 -4,-8 -2,-2 -7,-2 -13,-2l-13 0 0 20zm0 31l15 0c7,0 12,-1 14,-3 3,-1 4,-4 4,-8 0,-2 0,-4 -2,-6 -1,-2 -3,-3 -6,-4 -2,0 -6,-1 -11,-1l-14 0 0 22z"/>
  <path id="18273112" class="fil3" d="M3234 833c-4,3 -8,6 -12,8 -4,1 -9,2 -14,2 -7,0 -13,-2 -17,-6 -5,-3 -7,-8 -7,-14 0,-4 1,-7 3,-10 1,-3 3,-5 6,-7 2,-1 5,-3 8,-3 3,-1 6,-2 11,-2 10,-1 17,-3 21,-4 1,-2 1,-3 1,-4 0,-4 -2,-8 -4,-10 -3,-3 -7,-4 -13,-4 -6,0 -10,1 -13,3 -3,2 -5,6 -6,11l-12 -2c1,-5 3,-9 6,-12 2,-3 6,-6 10,-7 5,-2 10,-3 16,-3 6,0 11,1 15,2 4,2 6,4 8,6 2,2 3,5 4,8 0,2 1,6 1,11l0 16c0,11 0,18 0,21 1,3 2,6 3,8l-12 0c-1,-2 -2,-5 -3,-8zm-1 -27c-4,2 -10,3 -19,5 -5,0 -8,1 -11,2 -2,1 -3,2 -4,4 -1,1 -2,3 -2,5 0,4 1,6 4,8 2,3 6,4 10,4 5,0 9,-1 13,-3 3,-2 6,-5 8,-9 1,-2 1,-6 1,-12l0 -4z"/>
  <path id="18273112" class="fil3" d="M3264 771l12 0 0 29 33 0 0 -29 12 0 0 70 -12 0 0 -31 -33 0 0 31 -12 0 0 -70z"/>
  <path id="18273112" class="fil3" d="M3339 771l12 0 0 29 34 0 0 -29 12 0 0 70 -12 0 0 -31 -34 0 0 31 -12 0 0 -70z"/>
  <path id="18273112" class="fil3" d="M3482 771l12 0 0 70 -12 0 0 -70zm-67 0l12 0 0 27 15 0c10,0 18,2 23,6 5,4 8,9 8,16 0,6 -2,11 -7,15 -4,4 -11,6 -21,6l-30 0 0 -70zm12 61l12 0c8,0 13,-1 17,-3 3,-2 5,-5 5,-9 0,-3 -2,-6 -4,-8 -2,-2 -8,-4 -16,-4l-14 0 0 24z"/>
  <path id="18273112" class="fil3" d="M3561 819l12 1c-2,7 -5,13 -10,17 -6,4 -13,6 -21,6 -10,0 -18,-3 -24,-10 -6,-6 -9,-15 -9,-26 0,-12 3,-21 9,-28 6,-7 14,-10 24,-10 9,0 17,3 23,10 6,6 9,15 9,27 0,1 0,2 0,3l-53 0c0,8 3,14 7,18 4,4 8,6 14,6 5,0 8,-1 12,-3 3,-3 5,-6 7,-11zm-39 -20l39 0c0,-6 -2,-10 -4,-13 -4,-5 -9,-7 -15,-7 -6,0 -10,2 -14,6 -4,3 -6,8 -6,14z"/>
  <g>
   <path id="18274256" class="fil4" d="M-1124 2181l1310 0 0 0 32 21 21 31 0 0 0 0 0 199 0 0 -21 42 -32 11 0 0 -1310 0 0 0 -32 -11 -21 -42 0 0 0 -199 0 0 21 -31 32 -21z"/>
   <path id="18274168" class="fil0 str0" d="M-1124 2181l1310 0 0 0 32 21 21 31 0 0 0 0 0 199 0 0 -21 42 -32 11 0 0 -1310 0 0 0 -32 -11 -21 -42 0 0 0 -199 0 0 21 -31 32 -21"/>
   <path id="18273024" class="fil5" d="M-1049 2390l0 -120 24 0 0 48 48 0 0 -48 24 0 0 120 -24 0 0 -52 -48 0 0 52 -24 0z"/>
   <path id="18273024" class="fil5" d="M-911 2330l-21 -4c3,-8 7,-14 12,-18 6,-5 15,-7 26,-7 10,0 18,2 23,4 5,3 8,6 10,9 2,4 4,11 4,21l-1 27c0,7 1,13 1,17 1,3 3,7 5,11l-23 0c-1,-1 -2,-3 -2,-6 -1,-2 -1,-3 -1,-3 -4,4 -8,7 -13,8 -4,2 -9,3 -14,3 -9,0 -16,-2 -21,-7 -6,-5 -8,-11 -8,-18 0,-5 1,-10 3,-14 3,-3 6,-6 10,-8 4,-2 11,-4 19,-6 10,-2 18,-4 22,-5l0 -3c0,-4 -1,-7 -3,-9 -3,-2 -7,-3 -13,-3 -4,0 -7,1 -9,2 -3,2 -4,5 -6,9zm31 19c-3,1 -8,2 -14,3 -6,2 -11,3 -13,4 -3,2 -4,5 -4,8 0,3 1,6 3,9 3,2 6,3 10,3 4,0 8,-1 12,-4 2,-2 4,-5 5,-8 1,-2 1,-5 1,-11l0 -4z"/>
   <path id="18273024" class="fil5" d="M-723 2268l16 0c-1,6 -3,12 -6,15 -3,4 -11,6 -23,6 -1,0 -3,0 -4,0l-3 0c-8,0 -14,0 -18,2 -5,2 -9,5 -11,9 -3,5 -5,13 -5,23 3,-7 8,-11 13,-15 6,-3 12,-4 19,-4 12,0 21,4 29,13 8,9 12,19 12,31 0,12 -4,23 -12,31 -9,9 -19,13 -33,13 -9,0 -17,-2 -24,-6 -7,-5 -12,-11 -15,-18 -3,-8 -5,-21 -5,-39 0,-20 4,-35 12,-44 7,-10 21,-14 40,-14l12 0c3,0 5,-1 6,-3zm-46 80c0,7 2,14 6,18 4,5 8,7 14,7 6,0 11,-2 15,-7 4,-5 6,-11 6,-18 0,-8 -2,-14 -6,-19 -4,-5 -9,-7 -15,-7 -5,0 -10,2 -14,7 -4,5 -6,11 -6,19z"/>
   <path id="18273024" class="fil5" d="M-667 2330l-21 -4c2,-8 6,-14 12,-18 6,-5 14,-7 25,-7 11,0 18,2 23,4 5,3 9,6 11,9 2,4 3,11 3,21l0 27c0,7 0,13 1,17 1,3 2,7 4,11l-23 0c0,-1 -1,-3 -2,-6 0,-2 -1,-3 -1,-3 -4,4 -8,7 -12,8 -5,2 -10,3 -15,3 -9,0 -16,-2 -21,-7 -5,-5 -8,-11 -8,-18 0,-5 2,-10 4,-14 2,-3 6,-6 10,-8 4,-2 10,-4 18,-6 11,-2 18,-4 22,-5l0 -3c0,-4 -1,-7 -3,-9 -2,-2 -6,-3 -12,-3 -4,0 -8,1 -10,2 -2,2 -4,5 -5,9zm30 19c-3,1 -7,2 -14,3 -6,2 -10,3 -12,4 -3,2 -5,5 -5,8 0,3 2,6 4,9 2,2 5,3 9,3 4,0 8,-1 12,-4 3,-2 5,-5 5,-8 1,-2 1,-5 1,-11l0 -4z"/>
   <path id="18273024" class="fil5" d="M-566 2355l0 -15c4,0 7,-1 9,-1 2,-1 3,-2 5,-4 2,-2 2,-4 2,-7 0,-2 -1,-5 -3,-7 -2,-3 -5,-4 -9,-4 -3,0 -5,1 -8,2 -2,2 -4,5 -6,10l-20 -5c2,-7 6,-13 13,-17 6,-4 14,-6 22,-6 10,0 18,3 24,8 6,4 9,10 9,18 0,4 -1,8 -4,11 -2,3 -6,6 -12,8 7,2 12,5 15,8 3,4 5,8 5,14 0,6 -4,12 -10,17 -6,5 -15,7 -27,7 -21,0 -34,-8 -38,-24l21 -4c3,9 9,13 16,13 5,0 8,-1 11,-3 2,-3 4,-5 4,-8 0,-4 -2,-6 -4,-8 -3,-2 -7,-3 -11,-3l-4 0z"/>
   <path id="18273024" class="fil5" d="M-458 2363l23 4c-3,8 -7,14 -14,19 -6,4 -14,6 -24,6 -15,0 -26,-5 -33,-14 -6,-8 -9,-18 -9,-30 0,-15 4,-26 11,-34 8,-8 17,-13 29,-13 13,0 23,5 31,13 7,9 11,22 10,40l-57 0c0,6 2,12 5,15 4,4 8,6 14,6 3,0 6,-1 9,-3 2,-2 4,-5 5,-9zm2 -24c-1,-6 -2,-11 -6,-15 -3,-3 -7,-5 -12,-5 -5,0 -9,2 -12,6 -3,3 -5,8 -5,14l35 0z"/>
   <path id="18273024" class="fil5" d="M-292 2329l-23 4c-1,-4 -3,-8 -5,-10 -3,-2 -7,-3 -11,-3 -6,0 -10,2 -14,5 -3,4 -5,11 -5,20 0,11 2,18 6,22 3,4 8,7 13,7 5,0 8,-2 11,-4 3,-3 5,-7 6,-13l23 4c-3,10 -7,18 -14,23 -6,6 -15,8 -27,8 -12,0 -22,-4 -30,-12 -8,-8 -11,-19 -11,-33 0,-14 3,-26 11,-34 8,-8 18,-12 31,-12 10,0 19,3 25,7 6,5 11,12 14,21z"/>
   <path id="18273024" class="fil5" d="M-225 2363l23 4c-3,8 -7,14 -14,19 -6,4 -14,6 -24,6 -15,0 -26,-5 -33,-14 -6,-8 -9,-18 -9,-30 0,-15 4,-26 12,-34 7,-8 17,-13 28,-13 13,0 23,5 31,13 7,9 11,22 11,40l-58 0c0,6 2,12 5,15 4,4 8,6 14,6 3,0 6,-1 9,-3 2,-2 4,-5 5,-9zm2 -24c-1,-6 -2,-11 -5,-15 -4,-3 -8,-5 -12,-5 -5,0 -10,2 -13,6 -3,3 -5,8 -5,14l35 0z"/>
   <path id="18273024" class="fil5" d="M-194 2303l78 0 0 19 -27 0 0 68 -23 0 0 -68 -28 0 0 -19z"/>
   <path id="18273024" class="fil5" d="M-51 2363l22 4c-2,8 -7,14 -13,19 -7,4 -15,6 -24,6 -15,0 -27,-5 -34,-14 -6,-8 -9,-18 -9,-30 0,-15 4,-26 12,-34 7,-8 17,-13 28,-13 13,0 23,5 31,13 7,9 11,22 11,40l-58 0c0,6 2,12 6,15 3,4 8,6 13,6 3,0 7,-1 9,-3 2,-2 4,-5 6,-9zm1 -24c0,-6 -2,-11 -5,-15 -4,-3 -8,-5 -12,-5 -5,0 -9,2 -13,6 -3,3 -5,8 -5,14l35 0z"/>
   <path id="18273024" class="fil5" d="M-9 2303l22 0 0 55 35 -55 23 0 0 87 -22 0 0 -55 -36 55 -22 0 0 -87zm55 -35l11 0c0,8 -3,13 -8,18 -4,4 -10,6 -17,6 -8,0 -13,-2 -18,-6 -5,-5 -7,-10 -8,-18l11 0c1,4 2,7 4,9 3,2 6,3 11,3 4,0 8,-1 10,-3 2,-2 4,-5 4,-9z"/>
  </g>
  <g>
   <path id="18275312" class="fil2" d="M542 2024l650 0 0 0 31 10 11 32 0 0 0 0 0 136 0 0 -11 32 -31 10 0 0 -650 0 0 0 -21 -10 -10 -32 0 0 0 -136 0 0 10 -32 21 -10z"/>
   <path id="18275224" class="fil0 str0" d="M542 2024l650 0 0 0 31 10 11 32 0 0 0 0 0 136 0 0 -11 32 -31 10 0 0 -650 0 0 0 -21 -10 -10 -32 0 0 0 -136 0 0 10 -32 21 -10"/>
   <path id="18272936" class="fil3" d="M609 2095l0 -12 12 0 0 12c12,1 22,5 29,12 7,6 11,15 11,25 0,10 -3,18 -10,25 -7,7 -17,11 -30,12l0 12 -12 0 0 -12c-12,-1 -21,-4 -29,-11 -8,-6 -12,-15 -12,-26 0,-11 4,-20 12,-26 8,-7 17,-10 29,-11zm12 11l0 52c8,-1 15,-3 20,-8 4,-4 7,-10 7,-18 0,-8 -3,-14 -7,-18 -5,-5 -12,-7 -20,-8zm-12 1c-8,0 -15,2 -20,7 -5,4 -7,10 -7,18 0,8 2,14 7,18 5,5 12,7 20,7l0 -50z"/>
   <path id="18272936" class="fil3" d="M676 2111l12 0 0 53 33 -53 13 0 0 70 -12 0 0 -53 -33 53 -13 0 0 -70z"/>
   <path id="18272936" class="fil3" d="M798 2173c-5,3 -9,6 -13,7 -4,2 -8,3 -13,3 -8,0 -14,-2 -18,-6 -4,-4 -6,-9 -6,-14 0,-4 0,-7 2,-10 2,-3 4,-5 6,-7 3,-1 6,-3 9,-4 2,0 6,-1 10,-1 10,-2 17,-3 22,-5 0,-1 0,-2 0,-3 0,-5 -1,-8 -3,-10 -4,-3 -8,-4 -14,-4 -6,0 -10,1 -13,3 -2,2 -4,5 -6,10l-11 -1c1,-5 3,-9 5,-12 2,-3 6,-6 11,-8 4,-1 10,-2 16,-2 6,0 11,1 14,2 4,2 7,3 9,5 1,3 3,5 3,9 1,2 1,5 1,11l0 16c0,11 0,18 1,21 0,3 1,6 3,8l-13 0c-1,-2 -2,-5 -2,-8zm-1 -27c-5,2 -11,3 -20,4 -5,1 -8,2 -10,3 -2,1 -4,2 -5,4 -1,1 -2,3 -2,5 0,3 2,6 4,8 2,2 6,3 11,3 4,0 8,-1 12,-3 4,-2 6,-4 8,-8 1,-3 2,-7 2,-12l0 -4z"/>
   <path id="18272936" class="fil3" d="M818 2111l57 0 0 9 -22 0 0 61 -12 0 0 -61 -23 0 0 -9z"/>
   <path id="18272936" class="fil3" d="M887 2111l12 0 0 29 33 0 0 -29 12 0 0 70 -12 0 0 -31 -33 0 0 31 -12 0 0 -70z"/>
   <path id="18272936" class="fil3" d="M1029 2111l12 0 0 70 -12 0 0 -70zm-67 0l12 0 0 27 16 0c9,0 17,2 22,6 6,4 8,9 8,16 0,6 -2,11 -6,15 -5,4 -12,6 -22,6l-30 0 0 -70zm12 60l13 0c8,0 13,-1 16,-2 3,-2 5,-5 5,-9 0,-3 -1,-6 -4,-8 -2,-3 -7,-4 -15,-4l-15 0 0 23z"/>
   <path id="18272936" class="fil3" d="M1108 2158l13 2c-2,7 -6,13 -11,17 -5,4 -12,6 -20,6 -11,0 -19,-3 -25,-10 -6,-6 -9,-15 -9,-26 0,-12 3,-22 9,-28 6,-7 14,-10 24,-10 10,0 17,3 23,10 6,6 9,15 9,27 0,0 0,2 0,3l-52 0c0,8 2,14 6,18 4,4 9,6 15,6 4,0 8,-1 11,-3 3,-3 6,-6 7,-12zm-39 -19l40 0c-1,-6 -2,-10 -5,-13 -4,-5 -9,-7 -15,-7 -5,0 -10,2 -14,5 -3,4 -5,9 -6,15z"/>
  </g>
  <path id="18272848" class="fil3" d="M1467 1984l37 -98 14 0 40 98 -15 0 -11 -30 -41 0 -11 30 -13 0zm28 -40l33 0 -10 -27c-3,-8 -6,-15 -7,-20 -1,6 -3,12 -5,18l-11 29z"/>
  <path id="18272848" class="fil3" d="M1567 1913l12 0 0 30 33 0 0 -30 12 0 0 71 -12 0 0 -31 -33 0 0 31 -12 0 0 -71z"/>
  <path id="18272848" class="fil3" d="M1638 1949c0,-13 3,-23 10,-29 6,-6 14,-8 23,-8 9,0 17,3 23,9 7,7 10,15 10,27 0,9 -2,16 -4,21 -3,5 -7,9 -12,12 -6,3 -11,5 -17,5 -10,0 -18,-4 -24,-10 -6,-6 -9,-15 -9,-27zm12 0c0,9 2,15 6,20 4,4 9,7 15,7 6,0 11,-3 14,-7 4,-5 6,-11 6,-21 0,-8 -2,-15 -6,-20 -4,-4 -8,-6 -14,-6 -6,0 -11,2 -15,6 -4,5 -6,12 -6,21z"/>
  <path id="18272848" class="fil3" d="M1718 1913l12 0 0 30 33 0 0 -30 12 0 0 71 -12 0 0 -31 -33 0 0 31 -12 0 0 -71z"/>
  <path id="18272848" class="fil3" d="M1793 1913l12 0 0 54 33 -54 13 0 0 71 -12 0 0 -54 -33 54 -13 0 0 -71z"/>
  <path id="18272848" class="fil3" d="M1869 1913l19 0 19 57 20 -57 18 0 0 71 -12 0 0 -57 -21 57 -11 0 -20 -60 0 60 -12 0 0 -71z"/>
  <path id="18272848" class="fil3" d="M1963 1913l12 0 0 30 33 0 0 -30 12 0 0 71 -12 0 0 -31 -33 0 0 31 -12 0 0 -71z"/>
  <path id="18272848" class="fil3" d="M2105 1913l12 0 0 71 -12 0 0 -71zm-67 0l12 0 0 28 15 0c10,0 18,2 23,6 6,4 8,9 8,16 0,5 -2,11 -6,15 -5,4 -12,6 -22,6l-30 0 0 -71zm12 61l13 0c7,0 13,-1 16,-3 3,-2 5,-4 5,-8 0,-3 -1,-6 -4,-9 -2,-2 -7,-3 -16,-3l-14 0 0 23z"/>
  <path id="18272848" class="fil3" d="M2184 1961l13 2c-2,7 -6,13 -11,17 -5,4 -12,6 -20,6 -11,0 -19,-4 -25,-10 -6,-6 -9,-15 -9,-27 0,-12 3,-21 9,-27 6,-7 14,-10 24,-10 9,0 17,3 23,9 6,7 9,16 9,27 0,1 0,2 0,4l-53 0c1,7 3,13 7,18 4,4 9,6 15,6 4,0 8,-1 11,-4 3,-2 6,-6 7,-11zm-39 -19l39 0c0,-6 -2,-11 -4,-14 -4,-4 -9,-6 -15,-6 -5,0 -10,1 -14,5 -3,4 -6,9 -6,15z"/>
  <path id="18272760" class="fil3" d="M1478 2117l76 0 0 98 -13 0 0 -86 -51 0 0 86 -12 0 0 -98z"/>
  <path id="18272760" class="fil3" d="M1622 2192l13 1c-2,8 -6,13 -11,17 -6,4 -12,6 -21,6 -10,0 -18,-3 -24,-9 -6,-7 -9,-16 -9,-27 0,-12 3,-21 9,-28 6,-6 14,-10 24,-10 9,0 17,4 23,10 6,6 9,15 9,27 0,1 0,2 0,3l-53 0c1,8 3,14 7,18 4,4 9,6 15,6 4,0 8,-1 11,-3 3,-2 5,-6 7,-11zm-39 -20l39 0c0,-5 -2,-10 -4,-13 -4,-5 -9,-7 -15,-7 -6,0 -10,2 -14,6 -4,3 -6,8 -6,14z"/>
  <path id="18272760" class="fil3" d="M1650 2242l0 -98 10 0 0 9c3,-3 6,-6 9,-8 3,-2 7,-3 12,-3 6,0 11,2 16,5 5,3 8,7 10,13 3,6 4,12 4,19 0,7 -1,13 -4,19 -3,6 -6,10 -11,14 -5,3 -10,4 -16,4 -4,0 -7,-1 -11,-2 -3,-2 -5,-4 -7,-7l0 35 -12 0zm10 -62c0,9 2,15 6,20 4,4 8,6 13,6 6,0 10,-2 14,-6 4,-5 6,-12 6,-21 0,-9 -2,-16 -6,-21 -4,-4 -8,-6 -13,-6 -5,0 -10,2 -14,7 -4,5 -6,12 -6,21z"/>
  <path id="18272760" class="fil3" d="M1771 2189l12 1c-1,8 -4,15 -10,19 -5,5 -11,7 -19,7 -10,0 -18,-3 -23,-9 -6,-7 -9,-16 -9,-27 0,-8 1,-15 3,-21 3,-5 7,-10 12,-12 5,-3 11,-5 17,-5 8,0 14,2 19,6 5,4 8,10 9,17l-12 1c-1,-4 -3,-8 -5,-10 -3,-3 -7,-4 -11,-4 -6,0 -11,2 -14,7 -4,4 -6,11 -6,20 0,10 2,17 5,21 4,4 9,6 15,6 4,0 8,-1 11,-4 4,-3 6,-7 6,-13z"/>
  <path id="18272760" class="fil3" d="M1791 2179c0,-13 3,-23 10,-29 7,-5 14,-8 23,-8 9,0 17,3 23,10 7,6 10,15 10,26 0,9 -2,16 -4,22 -3,5 -7,9 -12,12 -5,3 -11,4 -17,4 -10,0 -18,-3 -24,-9 -6,-7 -9,-16 -9,-28zm12 0c0,9 2,16 6,21 4,4 9,6 15,6 6,0 11,-2 15,-6 3,-5 5,-12 5,-21 0,-9 -2,-16 -6,-20 -3,-5 -8,-7 -14,-7 -6,0 -11,2 -15,7 -4,4 -6,11 -6,20z"/>
  <path id="18272760" class="fil3" d="M1871 2144l12 0 0 29 33 0 0 -29 12 0 0 71 -12 0 0 -32 -33 0 0 32 -12 0 0 -71z"/>
  <path id="18272760" class="fil3" d="M1992 2206c-4,4 -9,6 -13,8 -4,1 -8,2 -13,2 -8,0 -14,-2 -18,-6 -4,-3 -6,-8 -6,-14 0,-4 1,-7 2,-10 2,-2 4,-5 7,-6 2,-2 5,-3 8,-4 2,-1 6,-2 11,-2 9,-1 17,-3 21,-4 0,-2 0,-3 0,-3 0,-5 -1,-9 -3,-11 -3,-2 -8,-4 -14,-4 -5,0 -10,1 -12,3 -3,2 -5,6 -6,11l-12 -2c1,-5 3,-9 5,-12 3,-3 6,-6 11,-7 4,-2 10,-3 16,-3 6,0 11,1 15,2 3,2 6,4 8,6 2,2 3,5 4,8 0,2 0,6 0,11l0 16c0,11 0,18 1,21 1,3 2,6 3,9l-12 0c-2,-3 -3,-6 -3,-9zm-1 -27c-4,2 -11,3 -19,5 -5,0 -9,1 -11,2 -2,1 -3,2 -5,4 -1,2 -1,4 -1,6 0,3 1,5 3,8 3,2 6,3 11,3 5,0 9,-1 12,-3 4,-2 7,-5 8,-9 2,-2 2,-6 2,-11l0 -5z"/>
  <path id="18272760" class="fil3" d="M2028 2144l55 0 0 71 -12 0 0 -61 -31 0 0 35c0,8 -1,14 -1,16 -1,3 -2,5 -5,7 -2,2 -5,3 -10,3 -3,0 -6,0 -10,0l0 -10 6 0c2,0 4,-1 5,-1 1,-1 2,-2 2,-3 0,-1 1,-4 1,-11l0 -46z"/>
  <path id="18272760" class="fil3" d="M2101 2144l12 0 0 54 34 -54 12 0 0 71 -12 0 0 -54 -33 54 -13 0 0 -71z"/>
  <path id="18272760" class="fil3" d="M2193 2183l0 -10c5,0 9,0 10,0 2,-1 4,-2 6,-4 1,-1 2,-4 2,-6 0,-3 -1,-6 -3,-8 -2,-2 -5,-3 -8,-3 -7,0 -12,4 -15,12l-11 -2c4,-13 12,-20 26,-20 7,0 13,2 17,7 5,4 7,9 7,14 0,6 -3,11 -9,14 4,2 7,4 8,7 2,3 3,7 3,11 0,6 -2,11 -7,15 -4,4 -11,6 -19,6 -16,0 -26,-7 -28,-21l11 -3c1,5 3,8 6,11 3,2 7,4 11,4 4,0 7,-2 10,-4 3,-2 4,-5 4,-9 0,-2 -1,-5 -2,-7 -2,-2 -4,-3 -6,-4 -2,0 -5,0 -10,0 -1,0 -2,0 -3,0z"/>
  <path id="18272760" class="fil3" d="M2240 2144l12 0 0 54 33 -54 13 0 0 71 -12 0 0 -54 -33 54 -13 0 0 -71z"/>
  <path id="18272760" class="fil3" d="M2316 2242l0 -98 11 0 0 9c3,-3 5,-6 9,-8 3,-2 7,-3 11,-3 6,0 12,2 16,5 5,3 9,7 11,13 2,6 3,12 3,19 0,7 -1,13 -4,19 -2,6 -6,10 -11,14 -5,3 -10,4 -15,4 -4,0 -8,-1 -11,-2 -3,-2 -6,-4 -8,-7l0 35 -12 0zm11 -62c0,9 2,15 5,20 4,4 9,6 14,6 5,0 10,-2 13,-6 4,-5 6,-12 6,-21 0,-9 -2,-16 -5,-21 -4,-4 -9,-6 -14,-6 -5,0 -9,2 -13,7 -4,5 -6,12 -6,21z"/>
  <path id="18272760" class="fil3" d="M2387 2179c0,-13 4,-23 11,-29 6,-5 14,-8 23,-8 9,0 17,3 23,10 7,6 10,15 10,26 0,9 -2,16 -5,22 -2,5 -6,9 -11,12 -6,3 -11,4 -17,4 -10,0 -18,-3 -24,-9 -7,-7 -10,-16 -10,-28zm13 0c0,9 2,16 6,21 4,4 9,6 15,6 5,0 10,-2 14,-6 4,-5 6,-12 6,-21 0,-9 -2,-16 -6,-20 -4,-5 -9,-7 -14,-7 -6,0 -11,2 -15,7 -4,4 -6,11 -6,20z"/>
  <path id="18272760" class="fil3" d="M2468 2144l27 0c7,0 12,0 15,2 4,1 7,3 9,6 2,3 4,6 4,11 0,3 -1,6 -3,8 -1,3 -3,5 -6,7 3,1 6,3 8,6 3,3 4,7 4,11 -1,7 -3,11 -7,15 -5,3 -11,5 -19,5l-32 0 0 -71zm12 30l12 0c6,0 9,-1 11,-1 2,-1 4,-2 5,-3 2,-2 2,-4 2,-6 0,-4 -1,-7 -4,-8 -2,-1 -7,-2 -13,-2l-13 0 0 20zm0 31l15 0c7,0 12,-1 14,-3 3,-1 4,-4 4,-8 0,-2 0,-4 -2,-6 -1,-2 -3,-3 -6,-4 -2,0 -6,0 -11,0l-14 0 0 21z"/>
  <path id="18272760" class="fil3" d="M2585 2206c-5,4 -9,6 -13,8 -4,1 -9,2 -13,2 -8,0 -14,-2 -18,-6 -4,-3 -7,-8 -7,-14 0,-4 1,-7 3,-10 1,-2 3,-5 6,-6 3,-2 5,-3 9,-4 2,-1 5,-2 10,-2 10,-1 17,-3 22,-4 0,-2 0,-3 0,-3 0,-5 -1,-9 -4,-11 -3,-2 -7,-4 -13,-4 -6,0 -10,1 -13,3 -3,2 -4,6 -6,11l-11 -2c1,-5 2,-9 5,-12 2,-3 6,-6 10,-7 5,-2 10,-3 16,-3 6,0 11,1 15,2 4,2 7,4 8,6 2,2 3,5 4,8 1,2 1,6 1,11l0 16c0,11 0,18 0,21 1,3 2,6 4,9l-13 0c-1,-3 -2,-6 -2,-9zm-1 -27c-5,2 -11,3 -20,5 -5,0 -8,1 -10,2 -2,1 -4,2 -5,4 -1,2 -2,4 -2,6 0,3 1,5 4,8 2,2 6,3 10,3 5,0 9,-1 13,-3 3,-2 6,-5 8,-9 1,-2 2,-6 2,-11l0 -5z"/>
  <path id="18272760" class="fil3" d="M2614 2144l12 0 0 29 34 0 0 -29 12 0 0 71 -12 0 0 -32 -34 0 0 32 -12 0 0 -71z"/>
  <path id="18272760" class="fil3" d="M2690 2144l12 0 0 29 33 0 0 -29 12 0 0 71 -12 0 0 -32 -33 0 0 32 -12 0 0 -71z"/>
  <path id="18272760" class="fil3" d="M2832 2144l12 0 0 71 -12 0 0 -71zm-67 0l12 0 0 28 15 0c10,0 18,1 23,5 5,4 8,9 8,16 0,6 -2,11 -7,15 -4,4 -11,7 -21,7l-30 0 0 -71zm12 61l13 0c7,0 13,-1 16,-3 3,-2 5,-5 5,-9 0,-3 -2,-6 -4,-8 -2,-2 -8,-4 -16,-4l-14 0 0 24z"/>
  <path id="18272760" class="fil3" d="M2911 2192l12 1c-1,8 -5,13 -10,17 -6,4 -12,6 -21,6 -10,0 -18,-3 -24,-9 -6,-7 -9,-16 -9,-27 0,-12 3,-21 9,-28 6,-6 14,-10 24,-10 9,0 17,4 23,10 6,6 9,15 9,27 0,1 0,2 0,3l-53 0c1,8 3,14 7,18 4,4 9,6 14,6 5,0 9,-1 12,-3 3,-2 5,-6 7,-11zm-39 -20l39 0c0,-5 -2,-10 -4,-13 -4,-5 -9,-7 -15,-7 -6,0 -10,2 -14,6 -4,3 -6,8 -6,14z"/>
  <g>
   <path id="18274608" class="fil2" d="M542 2554l839 0 0 0 31 11 11 21 0 0 0 0 0 146 0 0 -11 21 -31 11 0 0 -839 0 0 0 -21 -11 -10 -21 0 0 0 -146 0 0 10 -21 21 -11z"/>
   <path id="18274520" class="fil0 str0" d="M542 2554l839 0 0 0 31 11 11 21 0 0 0 0 0 146 0 0 -11 21 -31 11 0 0 -839 0 0 0 -21 -11 -10 -21 0 0 0 -146 0 0 10 -21 21 -11"/>
   <path id="18272672" class="fil3" d="M574 2712l0 -98 13 0 0 40 51 0 0 -40 12 0 0 98 -12 0 0 -46 -51 0 0 46 -13 0z"/>
   <path id="18272672" class="fil3" d="M719 2689l12 1c-2,8 -5,13 -11,17 -5,4 -12,6 -20,6 -10,0 -18,-3 -25,-9 -6,-7 -9,-16 -9,-27 0,-12 3,-21 10,-28 6,-6 14,-10 23,-10 10,0 18,3 24,10 6,6 9,15 9,27 0,1 0,2 -1,3l-52 0c0,8 2,14 6,18 4,4 9,6 15,6 5,0 8,-1 11,-3 3,-2 6,-6 8,-11zm-40 -20l40 0c-1,-6 -2,-10 -5,-13 -3,-5 -8,-7 -14,-7 -6,0 -11,2 -14,6 -4,3 -6,8 -7,14z"/>
   <path id="18272672" class="fil3" d="M787 2614l12 0 0 34c3,-3 5,-5 8,-7 3,-1 7,-2 10,-2 8,0 15,4 20,11 5,7 7,16 7,26 0,11 -2,20 -8,27 -5,7 -11,10 -19,10 -3,0 -5,0 -8,-1 -3,-1 -6,-3 -10,-7l0 34 -12 0 0 -34c-2,3 -5,5 -8,6 -3,1 -6,2 -9,2 -7,0 -14,-3 -19,-10 -6,-6 -9,-15 -9,-28 0,-10 3,-18 8,-25 5,-7 11,-11 20,-11 3,0 7,1 10,2 2,2 5,4 7,7l0 -34zm12 62c0,11 2,18 5,22 3,4 6,5 11,5 4,0 9,-2 12,-6 3,-5 5,-12 5,-21 0,-9 -1,-16 -5,-20 -3,-5 -7,-7 -12,-7 -5,0 -9,2 -12,7 -2,4 -4,11 -4,20zm-45 -1c0,10 2,17 5,22 4,4 8,6 13,6 5,0 9,-2 12,-6 2,-5 3,-11 3,-20 0,-9 -1,-16 -4,-21 -2,-5 -6,-7 -12,-7 -5,0 -9,2 -12,7 -3,4 -5,11 -5,19z"/>
   <path id="18272672" class="fil3" d="M858 2641l12 0 0 54 33 -54 13 0 0 71 -12 0 0 -54 -33 54 -13 0 0 -71z"/>
   <path id="18272672" class="fil3" d="M981 2703c-5,4 -9,6 -13,8 -4,1 -9,2 -13,2 -8,0 -14,-2 -18,-6 -5,-3 -7,-8 -7,-14 0,-4 1,-7 3,-10 1,-2 3,-5 6,-6 2,-2 5,-4 9,-4 2,-1 5,-2 10,-2 10,-1 17,-3 22,-4 0,-2 0,-3 0,-3 0,-5 -2,-9 -4,-11 -3,-2 -7,-4 -13,-4 -6,0 -10,1 -13,3 -3,2 -5,6 -6,11l-12 -2c2,-5 3,-9 6,-12 2,-3 6,-6 10,-7 5,-2 10,-3 16,-3 6,0 11,1 15,2 4,2 7,4 8,6 2,2 3,5 4,8 0,2 1,6 1,11l0 16c0,11 0,18 0,21 1,3 2,6 3,9l-12 0c-1,-3 -2,-6 -2,-9zm-1 -27c-5,2 -11,3 -20,5 -5,0 -8,1 -10,2 -2,1 -4,2 -5,4 -1,2 -2,3 -2,6 0,3 1,5 4,8 2,2 6,3 10,3 5,0 9,-1 13,-3 3,-2 6,-5 8,-9 1,-2 2,-6 2,-12l0 -4z"/>
   <path id="18272672" class="fil3" d="M1001 2641l57 0 0 10 -23 0 0 61 -11 0 0 -61 -23 0 0 -10z"/>
   <path id="18272672" class="fil3" d="M1070 2641l12 0 0 29 33 0 0 -29 12 0 0 71 -12 0 0 -32 -33 0 0 32 -12 0 0 -71z"/>
   <path id="18272672" class="fil3" d="M1212 2641l12 0 0 71 -12 0 0 -71zm-67 0l12 0 0 27 15 0c10,0 18,2 23,6 5,4 8,9 8,16 0,6 -2,11 -7,15 -4,4 -11,7 -21,7l-30 0 0 -71zm12 61l13 0c7,0 13,-1 16,-3 3,-2 5,-5 5,-9 0,-3 -1,-6 -4,-8 -2,-2 -8,-4 -16,-4l-14 0 0 24z"/>
   <path id="18272672" class="fil3" d="M1291 2689l13 1c-2,8 -6,13 -11,17 -6,4 -12,6 -21,6 -10,0 -18,-3 -24,-9 -6,-7 -9,-16 -9,-27 0,-12 3,-21 9,-28 6,-6 14,-10 24,-10 9,0 17,3 23,10 6,6 9,15 9,27 0,1 0,2 0,3l-53 0c1,8 3,14 7,18 4,4 9,6 15,6 4,0 8,-1 11,-3 3,-2 5,-6 7,-11zm-39 -20l39 0c0,-6 -2,-10 -4,-13 -4,-5 -9,-7 -15,-7 -6,0 -10,2 -14,6 -4,3 -6,8 -6,14z"/>
  </g>
  <path id="18272584" class="fil3" d="M1655 2508l38 -97 14 0 40 97 -15 0 -11 -29 -41 0 -11 29 -14 0zm28 -40l34 0 -11 -27c-3,-8 -5,-15 -7,-20 -1,6 -3,12 -5,18l-11 29z"/>
  <path id="18272584" class="fil3" d="M1755 2437l12 0 0 30 34 0 0 -30 12 0 0 71 -12 0 0 -31 -34 0 0 31 -12 0 0 -71z"/>
  <path id="18272584" class="fil3" d="M1826 2473c0,-13 4,-23 11,-29 6,-6 14,-8 22,-8 10,0 18,3 24,9 6,7 9,16 9,27 0,9 -1,16 -4,21 -2,5 -6,9 -12,12 -5,3 -11,5 -17,5 -10,0 -18,-3 -24,-10 -6,-6 -9,-15 -9,-27zm12 0c0,9 2,16 6,20 4,5 9,7 15,7 6,0 11,-2 15,-7 4,-4 6,-11 6,-21 0,-8 -2,-15 -6,-20 -4,-4 -9,-6 -15,-6 -6,0 -11,2 -15,6 -4,5 -6,12 -6,21z"/>
  <path id="18272584" class="fil3" d="M1906 2437l12 0 0 30 34 0 0 -30 12 0 0 71 -12 0 0 -31 -34 0 0 31 -12 0 0 -71z"/>
  <path id="18272584" class="fil3" d="M1982 2437l12 0 0 54 33 -54 13 0 0 71 -12 0 0 -53 -33 53 -13 0 0 -71z"/>
  <path id="18272584" class="fil3" d="M2058 2437l19 0 18 57 21 -57 17 0 0 71 -12 0 0 -57 -21 57 -10 0 -20 -60 0 60 -12 0 0 -71z"/>
  <path id="18272584" class="fil3" d="M2152 2437l12 0 0 30 33 0 0 -30 12 0 0 71 -12 0 0 -31 -33 0 0 31 -12 0 0 -71z"/>
  <path id="18272584" class="fil3" d="M2294 2437l12 0 0 71 -12 0 0 -71zm-67 0l12 0 0 28 15 0c10,0 18,2 23,6 5,4 8,9 8,16 0,6 -2,11 -7,15 -4,4 -11,6 -21,6l-30 0 0 -71zm12 61l13 0c7,0 13,-1 16,-3 3,-1 5,-4 5,-8 0,-3 -2,-6 -4,-8 -2,-3 -8,-4 -16,-4l-14 0 0 23z"/>
  <path id="18272584" class="fil3" d="M2373 2485l12 2c-2,7 -5,13 -10,17 -6,4 -12,6 -21,6 -10,0 -18,-4 -24,-10 -6,-6 -9,-15 -9,-27 0,-12 3,-21 9,-27 6,-7 14,-10 24,-10 9,0 17,3 23,9 6,7 9,16 9,28 0,0 0,1 0,3l-53 0c0,8 3,14 7,18 4,4 8,6 14,6 5,0 9,-1 12,-4 3,-2 5,-6 7,-11zm-39 -19l39 0c0,-6 -2,-10 -4,-13 -4,-5 -9,-7 -15,-7 -6,0 -10,1 -14,5 -4,4 -6,9 -6,15z"/>
  <path id="18272496" class="fil3" d="M1666 2641l77 0 0 98 -13 0 0 -86 -51 0 0 86 -13 0 0 -98z"/>
  <path id="18272496" class="fil3" d="M1811 2716l12 1c-2,8 -5,13 -11,17 -5,4 -12,6 -20,6 -10,0 -18,-3 -24,-9 -7,-7 -10,-16 -10,-27 0,-12 4,-21 10,-28 6,-6 14,-10 23,-10 10,0 18,4 24,10 6,6 9,16 9,27 0,1 0,2 0,3l-53 0c0,8 2,14 6,18 4,4 9,6 15,6 5,0 8,-1 11,-3 4,-2 6,-6 8,-11zm-39 -19l39 0c-1,-6 -2,-11 -5,-14 -3,-4 -8,-7 -14,-7 -6,0 -11,2 -14,6 -4,3 -6,8 -6,15z"/>
  <path id="18272496" class="fil3" d="M1838 2766l0 -98 11 0 0 9c3,-3 6,-6 9,-8 3,-2 7,-3 12,-3 6,0 11,2 16,5 4,3 8,8 10,13 2,6 4,12 4,19 0,7 -2,14 -4,19 -3,6 -7,11 -12,14 -5,3 -10,4 -15,4 -4,0 -8,-1 -11,-2 -3,-2 -6,-4 -8,-7l0 35 -12 0zm11 -62c0,9 2,16 6,20 3,4 8,6 13,6 5,0 10,-2 14,-6 3,-5 5,-12 5,-21 0,-9 -2,-16 -5,-20 -4,-5 -8,-7 -13,-7 -6,0 -10,2 -14,7 -4,5 -6,12 -6,21z"/>
  <path id="18272496" class="fil3" d="M1960 2713l12 1c-1,8 -5,15 -10,19 -5,5 -12,7 -20,7 -9,0 -17,-3 -23,-9 -6,-7 -9,-16 -9,-27 0,-8 2,-15 4,-20 3,-6 7,-10 12,-13 5,-3 10,-5 17,-5 7,0 14,2 18,6 5,4 8,10 10,17l-12 2c-1,-5 -3,-9 -6,-11 -3,-3 -6,-4 -10,-4 -6,0 -11,2 -15,7 -3,4 -5,11 -5,20 0,10 1,17 5,21 4,4 9,6 14,6 5,0 9,-1 12,-4 3,-3 5,-7 6,-13z"/>
  <path id="18272496" class="fil3" d="M1979 2703c0,-13 4,-22 11,-29 6,-5 14,-8 22,-8 10,0 18,4 24,10 6,6 9,15 9,26 0,9 -1,17 -4,22 -2,5 -6,9 -12,12 -5,3 -10,4 -17,4 -10,0 -18,-3 -24,-9 -6,-7 -9,-16 -9,-28zm13 0c0,9 1,16 5,21 4,4 9,6 15,6 6,0 11,-2 15,-6 4,-5 6,-12 6,-21 0,-9 -2,-15 -6,-20 -4,-4 -9,-7 -15,-7 -6,0 -11,3 -15,7 -4,5 -5,11 -5,20z"/>
  <path id="18272496" class="fil3" d="M2060 2668l12 0 0 29 33 0 0 -29 12 0 0 71 -12 0 0 -32 -33 0 0 32 -12 0 0 -71z"/>
  <path id="18272496" class="fil3" d="M2181 2730c-5,4 -9,6 -13,8 -4,1 -9,2 -13,2 -8,0 -14,-2 -18,-5 -4,-4 -6,-9 -6,-15 0,-3 0,-7 2,-9 2,-3 4,-6 6,-7 3,-2 6,-3 9,-4 2,-1 6,-1 10,-2 10,-1 17,-3 22,-4 0,-2 0,-3 0,-3 0,-5 -1,-9 -4,-11 -3,-2 -7,-4 -13,-4 -6,0 -10,1 -13,3 -2,2 -4,6 -6,11l-11 -2c1,-5 3,-9 5,-12 2,-3 6,-5 11,-7 4,-2 9,-3 16,-3 6,0 11,1 14,3 4,1 7,3 9,5 1,2 3,5 3,8 1,2 1,6 1,11l0 16c0,11 0,18 1,21 0,3 1,6 3,9l-13 0c-1,-3 -2,-6 -2,-9zm-1 -27c-5,2 -11,3 -20,5 -5,0 -8,1 -10,2 -2,1 -4,2 -5,4 -1,2 -2,4 -2,6 0,3 2,6 4,8 2,2 6,3 11,3 4,0 8,-1 12,-3 4,-2 6,-5 8,-8 1,-3 2,-7 2,-12l0 -5z"/>
  <path id="18272496" class="fil3" d="M2216 2668l56 0 0 71 -12 0 0 -61 -32 0 0 35c0,8 0,14 0,16 -1,3 -2,5 -5,7 -2,2 -6,3 -10,3 -3,0 -6,0 -10,0l0 -10 5 0c3,0 5,-1 6,-1 1,-1 1,-1 2,-3 0,-1 0,-4 0,-10l0 -47z"/>
  <path id="18272496" class="fil3" d="M2290 2668l12 0 0 54 33 -54 13 0 0 71 -12 0 0 -54 -33 54 -13 0 0 -71z"/>
  <path id="18272496" class="fil3" d="M2382 2707l0 -10c5,0 8,0 10,0 2,-1 4,-2 5,-3 2,-2 3,-4 3,-7 0,-3 -1,-6 -3,-8 -3,-2 -5,-3 -9,-3 -7,0 -11,4 -14,12l-11 -2c3,-13 12,-20 25,-20 8,0 14,2 18,7 4,4 7,9 7,14 0,6 -3,11 -9,14 4,2 6,4 8,7 2,3 3,7 3,11 0,6 -3,11 -7,15 -5,4 -11,6 -20,6 -16,0 -25,-7 -28,-21l12 -3c1,5 3,8 6,11 3,2 7,4 11,4 4,0 7,-2 10,-4 2,-2 4,-5 4,-9 0,-2 -1,-5 -3,-7 -1,-2 -3,-3 -5,-4 -2,0 -5,0 -11,0 0,0 -1,0 -2,0z"/>
  <path id="18272496" class="fil3" d="M2429 2668l12 0 0 54 33 -54 13 0 0 71 -12 0 0 -54 -33 54 -13 0 0 -71z"/>
  <path id="18272496" class="fil3" d="M2505 2766l0 -98 11 0 0 9c2,-3 5,-6 8,-8 4,-2 8,-3 12,-3 6,0 11,2 16,5 5,3 8,8 11,13 2,6 3,12 3,19 0,7 -1,14 -4,19 -2,6 -6,11 -11,14 -5,3 -10,4 -16,4 -4,0 -7,-1 -10,-2 -4,-2 -6,-4 -8,-7l0 35 -12 0zm11 -62c0,9 1,16 5,20 4,4 8,6 13,6 6,0 10,-2 14,-6 4,-5 6,-12 6,-21 0,-9 -2,-16 -6,-20 -3,-5 -8,-7 -13,-7 -5,0 -10,2 -14,7 -3,5 -5,12 -5,21z"/>
  <path id="18272496" class="fil3" d="M2576 2703c0,-13 4,-22 11,-29 6,-5 13,-8 22,-8 10,0 18,4 24,10 6,6 9,15 9,26 0,9 -1,17 -4,22 -3,5 -7,9 -12,12 -5,3 -11,4 -17,4 -10,0 -18,-3 -24,-9 -6,-7 -9,-16 -9,-28zm12 0c0,9 2,16 6,21 4,4 9,6 15,6 6,0 11,-2 15,-6 4,-5 6,-12 6,-21 0,-9 -2,-15 -6,-20 -4,-4 -9,-7 -15,-7 -6,0 -11,3 -15,7 -4,5 -6,11 -6,20z"/>
  <path id="18272496" class="fil3" d="M2656 2668l28 0c7,0 12,1 15,2 3,1 6,3 9,6 2,3 3,7 3,11 0,3 -1,6 -2,9 -1,2 -3,4 -6,6 3,1 6,3 8,6 2,3 3,7 3,11 0,7 -2,12 -7,15 -4,3 -10,5 -19,5l-32 0 0 -71zm12 30l13 0c5,0 9,0 11,-1 2,-1 3,-2 5,-3 1,-2 2,-4 2,-6 0,-4 -1,-6 -4,-8 -3,-1 -7,-2 -13,-2l-14 0 0 20zm0 31l16 0c7,0 12,-1 14,-3 3,-1 4,-4 4,-8 0,-2 -1,-4 -2,-6 -2,-2 -3,-3 -6,-4 -2,0 -6,0 -11,0l-15 0 0 21z"/>
  <path id="18272496" class="fil3" d="M2773 2730c-4,4 -8,6 -13,8 -4,1 -8,2 -13,2 -8,0 -13,-2 -18,-5 -4,-4 -6,-9 -6,-15 0,-3 1,-7 2,-9 2,-3 4,-6 7,-7 2,-2 5,-3 8,-4 3,-1 6,-1 11,-2 10,-1 17,-3 21,-4 0,-2 0,-3 0,-3 0,-5 -1,-9 -3,-11 -3,-2 -8,-4 -14,-4 -5,0 -9,1 -12,3 -3,2 -5,6 -6,11l-12 -2c1,-5 3,-9 5,-12 3,-3 6,-5 11,-7 5,-2 10,-3 16,-3 6,0 11,1 15,3 4,1 6,3 8,5 2,2 3,5 4,8 0,2 0,6 0,11l0 16c0,11 1,18 1,21 1,3 2,6 3,9l-12 0c-2,-3 -2,-6 -3,-9zm-1 -27c-4,2 -11,3 -19,5 -5,0 -9,1 -11,2 -2,1 -3,2 -4,4 -2,2 -2,4 -2,6 0,3 1,6 4,8 2,2 5,3 10,3 5,0 9,-1 12,-3 4,-2 7,-5 8,-8 2,-3 2,-7 2,-12l0 -5z"/>
  <path id="18272496" class="fil3" d="M2803 2668l12 0 0 29 33 0 0 -29 12 0 0 71 -12 0 0 -32 -33 0 0 32 -12 0 0 -71z"/>
  <path id="18272496" class="fil3" d="M2878 2668l12 0 0 29 33 0 0 -29 12 0 0 71 -12 0 0 -32 -33 0 0 32 -12 0 0 -71z"/>
  <path id="18272496" class="fil3" d="M3021 2668l12 0 0 71 -12 0 0 -71zm-67 0l12 0 0 28 15 0c10,0 17,2 23,5 5,4 8,10 8,16 0,6 -3,11 -7,15 -4,5 -12,7 -21,7l-30 0 0 -71zm12 61l12 0c8,0 13,-1 16,-3 4,-2 5,-5 5,-9 0,-3 -1,-5 -3,-8 -3,-2 -8,-3 -16,-3l-14 0 0 23z"/>
  <path id="18272496" class="fil3" d="M3100 2716l12 1c-2,8 -5,13 -11,17 -5,4 -12,6 -20,6 -10,0 -18,-3 -25,-9 -6,-7 -9,-16 -9,-27 0,-12 3,-21 10,-28 6,-6 14,-10 23,-10 10,0 18,4 24,10 6,6 9,16 9,27 0,1 0,2 -1,3l-52 0c0,8 2,14 6,18 4,4 9,6 15,6 5,0 8,-1 11,-3 3,-2 6,-6 8,-11zm-40 -19l40 0c-1,-6 -2,-11 -5,-14 -3,-4 -8,-7 -14,-7 -6,0 -11,2 -14,6 -4,3 -6,8 -7,15z"/>
  <g>
   <path id="18276016" class="fil4" d="M-1113 274l1771 0 0 0 32 10 21 42 0 0 0 0 0 200 0 0 -21 31 -32 21 0 0 -1771 0 0 0 -32 -21 -21 -31 0 0 0 -200 0 0 21 -42 32 -10z"/>
   <path id="18273640" class="fil5" d="M-1038 484l0 -120 24 0 0 47 48 0 0 -47 24 0 0 120 -24 0 0 -53 -48 0 0 53 -24 0z"/>
   <path id="18273640" class="fil5" d="M-900 423l-21 -4c3,-8 7,-14 12,-18 6,-4 15,-6 26,-6 10,0 18,1 23,3 5,3 8,6 10,10 2,3 4,10 4,20l-1 27c0,8 1,13 1,17 1,4 2,8 5,12l-23 0c-1,-2 -2,-4 -2,-7 -1,-2 -1,-2 -1,-3 -4,4 -8,7 -13,9 -4,2 -9,3 -14,3 -9,0 -16,-3 -21,-8 -6,-5 -8,-11 -8,-18 0,-5 1,-9 3,-13 3,-4 6,-7 10,-9 4,-2 11,-4 19,-5 10,-2 18,-4 22,-6l0 -2c0,-5 -1,-8 -3,-10 -3,-2 -7,-3 -13,-3 -4,0 -7,1 -9,3 -3,1 -4,4 -6,8zm31 19c-3,1 -8,2 -14,3 -6,2 -11,3 -13,4 -3,3 -4,5 -4,9 0,3 1,6 3,8 3,2 6,3 10,3 4,0 8,-1 12,-4 2,-2 4,-4 5,-7 1,-2 1,-6 1,-12l0 -4z"/>
   <path id="18273640" class="fil5" d="M-712 361l16 0c-1,7 -3,12 -6,16 -3,3 -11,5 -23,5 -1,0 -3,0 -4,0l-3 0c-8,0 -14,1 -18,2 -5,2 -9,5 -11,10 -3,4 -5,12 -5,22 3,-6 8,-11 13,-14 6,-3 12,-5 19,-5 12,0 21,4 29,13 8,9 12,19 12,31 0,12 -4,23 -12,32 -9,8 -19,13 -33,13 -9,0 -17,-3 -24,-7 -7,-4 -12,-11 -15,-18 -3,-8 -5,-21 -5,-38 0,-21 4,-36 12,-45 7,-9 21,-14 40,-14l12 0c3,0 5,-1 6,-3zm-46 80c0,8 2,14 6,19 4,4 8,7 14,7 6,0 11,-3 15,-8 4,-4 6,-11 6,-18 0,-8 -2,-14 -6,-19 -4,-4 -9,-7 -15,-7 -5,0 -10,3 -14,7 -4,5 -6,11 -6,19z"/>
   <path id="18273640" class="fil5" d="M-656 423l-21 -4c2,-8 6,-14 12,-18 6,-4 14,-6 25,-6 11,0 18,1 23,3 5,3 9,6 11,10 2,3 3,10 3,20l0 27c0,8 0,13 1,17 1,4 2,8 4,12l-23 0c0,-2 -1,-4 -2,-7 0,-2 -1,-2 -1,-3 -4,4 -8,7 -12,9 -5,2 -10,3 -15,3 -9,0 -16,-3 -21,-8 -5,-5 -8,-11 -8,-18 0,-5 1,-9 4,-13 2,-4 5,-7 10,-9 4,-2 10,-4 18,-5 11,-2 18,-4 22,-6l0 -2c0,-5 -1,-8 -3,-10 -2,-2 -6,-3 -12,-3 -4,0 -8,1 -10,3 -2,1 -4,4 -5,8zm30 19c-3,1 -7,2 -14,3 -6,2 -10,3 -12,4 -3,3 -5,5 -5,9 0,3 2,6 4,8 2,2 5,3 9,3 4,0 8,-1 12,-4 3,-2 5,-4 5,-7 1,-2 1,-6 1,-12l0 -4z"/>
   <path id="18273640" class="fil5" d="M-555 448l0 -15c4,0 7,0 9,-1 2,0 3,-2 5,-4 2,-2 2,-4 2,-6 0,-3 -1,-6 -3,-8 -2,-2 -5,-3 -9,-3 -3,0 -5,0 -8,1 -2,2 -4,5 -6,10l-20 -4c2,-8 6,-14 13,-18 6,-3 14,-5 22,-5 10,0 18,2 24,7 6,5 9,11 9,18 0,5 -1,8 -4,11 -2,3 -6,6 -12,9 7,1 12,4 15,8 3,3 5,7 5,13 0,7 -4,12 -10,17 -6,5 -15,8 -27,8 -21,0 -34,-9 -38,-25l21 -4c3,9 9,13 16,13 5,0 8,-1 11,-3 2,-2 4,-5 4,-8 0,-4 -2,-6 -4,-8 -3,-2 -7,-3 -11,-3l-4 0z"/>
   <path id="18273640" class="fil5" d="M-447 456l23 4c-3,8 -7,15 -14,19 -6,4 -14,7 -24,7 -15,0 -26,-5 -33,-15 -6,-8 -9,-18 -9,-30 0,-15 4,-26 11,-34 8,-8 17,-12 29,-12 13,0 23,4 31,13 7,8 11,21 10,39l-57 0c0,7 2,12 5,16 4,4 8,5 14,5 3,0 6,-1 9,-3 2,-2 4,-5 5,-9zm1 -23c0,-7 -1,-12 -5,-15 -3,-4 -7,-6 -12,-6 -5,0 -9,2 -12,6 -3,3 -5,8 -5,15l34 0z"/>
   <path id="18273640" class="fil5" d="M-281 422l-23 4c-1,-4 -3,-7 -5,-10 -3,-2 -7,-3 -11,-3 -6,0 -10,2 -14,6 -3,4 -5,10 -5,20 0,10 2,17 5,21 4,5 9,7 14,7 5,0 8,-1 11,-4 3,-2 5,-7 6,-13l23 4c-3,11 -7,18 -14,24 -6,5 -15,8 -27,8 -12,0 -22,-4 -30,-12 -8,-8 -11,-20 -11,-34 0,-14 3,-25 11,-33 8,-8 18,-12 31,-12 10,0 19,2 25,7 6,4 11,11 14,20z"/>
   <path id="18273640" class="fil5" d="M-263 397l28 0 22 60 22 -60 28 0 0 87 -20 0 0 -58 -21 58 -19 0 -21 -58 0 58 -19 0 0 -87z"/>
   <path id="18273640" class="fil5" d="M-125 423l-21 -4c2,-8 7,-14 12,-18 6,-4 14,-6 26,-6 10,0 18,1 23,3 5,3 8,6 10,10 2,3 3,10 3,20l0 27c0,8 1,13 1,17 1,4 2,8 4,12l-22 0c-1,-2 -2,-4 -3,-7 0,-2 0,-2 0,-3 -4,4 -9,7 -13,9 -4,2 -9,3 -14,3 -9,0 -16,-3 -21,-8 -6,-5 -8,-11 -8,-18 0,-5 1,-9 3,-13 3,-4 6,-7 10,-9 4,-2 10,-4 18,-5 11,-2 19,-4 23,-6l0 -2c0,-5 -1,-8 -3,-10 -3,-2 -7,-3 -13,-3 -4,0 -7,1 -9,3 -3,1 -5,4 -6,8zm31 19c-3,1 -8,2 -14,3 -7,2 -11,3 -13,4 -3,3 -4,5 -4,9 0,3 1,6 3,8 3,2 6,3 10,3 4,0 8,-1 11,-4 3,-2 5,-4 6,-7 1,-2 1,-6 1,-12l0 -4z"/>
   <path id="18273640" class="fil5" d="M-50 397l22 0 0 12c3,-4 6,-7 11,-10 5,-3 10,-4 16,-4 10,0 19,4 26,12 7,7 10,19 10,33 0,14 -3,25 -10,34 -7,8 -16,12 -26,12 -5,0 -9,-1 -13,-3 -4,-2 -8,-5 -13,-10l0 44 -23 0 0 -120zm23 42c0,9 2,17 6,21 4,5 9,7 14,7 6,0 10,-2 14,-6 3,-4 5,-11 5,-21 0,-9 -2,-16 -6,-20 -3,-5 -8,-7 -13,-7 -6,0 -11,2 -14,6 -4,5 -6,11 -6,20z"/>
   <path id="18273640" class="fil5" d="M41 397l79 0 0 18 -28 0 0 69 -23 0 0 -69 -28 0 0 -18z"/>
   <path id="18273640" class="fil5" d="M131 452l0 -23 45 0 0 23 -45 0z"/>
   <path id="18273640" class="fil5" d="M188 397l23 0 0 35c4,0 7,-1 8,-3 2,-2 4,-6 6,-13 3,-8 6,-14 10,-16 3,-3 8,-4 14,-4 1,0 4,0 9,1l0 15c-6,0 -10,0 -12,1 -2,2 -3,5 -5,11 -3,8 -7,13 -12,15 7,2 13,8 19,19 0,0 0,1 0,2l13 24 -24 0 -12 -25c-2,-6 -4,-9 -6,-10 -2,-2 -4,-2 -8,-2l0 37 -23 0 0 -87z"/>
   <path id="18273640" class="fil5" d="M290 423l-20 -4c2,-8 6,-14 12,-18 5,-4 14,-6 25,-6 10,0 18,1 23,3 5,3 9,6 11,10 2,3 3,10 3,20l0 27c0,8 0,13 1,17 0,4 2,8 4,12l-23 0c-1,-2 -1,-4 -2,-7 -1,-2 -1,-2 -1,-3 -4,4 -8,7 -13,9 -4,2 -9,3 -14,3 -9,0 -16,-3 -21,-8 -5,-5 -8,-11 -8,-18 0,-5 1,-9 4,-13 2,-4 5,-7 10,-9 4,-2 10,-4 18,-5 11,-2 18,-4 22,-6l0 -2c0,-5 -1,-8 -3,-10 -2,-2 -6,-3 -12,-3 -5,0 -8,1 -10,3 -2,1 -4,4 -6,8zm31 19c-3,1 -7,2 -14,3 -6,2 -10,3 -12,4 -3,3 -5,5 -5,9 0,3 1,6 4,8 2,2 5,3 9,3 4,0 8,-1 12,-4 3,-2 4,-4 5,-7 1,-2 1,-6 1,-12l0 -4z"/>
   <path id="18273640" class="fil5" d="M366 397l21 0 0 12c3,-4 7,-7 12,-10 4,-3 10,-4 15,-4 11,0 19,4 26,12 7,7 11,19 11,33 0,14 -4,25 -11,34 -7,8 -16,12 -26,12 -5,0 -9,-1 -13,-3 -4,-2 -8,-5 -12,-10l0 44 -23 0 0 -120zm23 42c0,9 2,17 5,21 4,5 9,7 15,7 5,0 9,-2 13,-6 3,-4 5,-11 5,-21 0,-9 -2,-16 -5,-20 -4,-5 -8,-7 -14,-7 -5,0 -10,2 -14,6 -4,5 -5,11 -5,20z"/>
   <path id="18273640" class="fil5" d="M456 397l79 0 0 18 -28 0 0 69 -23 0 0 -69 -28 0 0 -18z"/>
   <path id="18275928" class="fil0 str0" d="M-1113 274l1771 0 0 0 32 10 21 42 0 0 0 0 0 200 0 0 -21 31 -32 21 0 0 -1771 0 0 0 -32 -21 -21 -31 0 0 0 -200 0 0 21 -42 32 -10"/>
  </g>
 </g>
</svg>
